<svg id="svg" version="1.1" xmlns="http://www.w3.org/2000/svg" xmlns:xlink="http://www.w3.org/1999/xlink" width="400" height="280.80808080808083" viewBox="0, 0, 400,280.80808080808083"><g id="svgg"><path id="path0" d="M108.622 39.835 C 108.019 39.885,107.485 40.099,107.398 40.327 C 107.296 40.593,106.823 40.730,106.009 40.730 C 105.150 40.730,104.605 40.901,104.213 41.292 C 103.904 41.601,103.401 41.854,103.095 41.854 C 102.789 41.854,102.083 42.296,101.526 42.837 C 100.969 43.378,100.272 43.820,99.976 43.820 C 99.625 43.820,99.438 44.016,99.438 44.382 C 99.438 44.691,99.207 45.175,98.925 45.457 C 98.643 45.739,98.331 46.181,98.232 46.440 C 98.133 46.699,97.921 46.910,97.762 46.910 C 97.602 46.910,97.472 47.281,97.472 47.734 C 97.472 48.311,97.304 48.611,96.910 48.736 C 96.172 48.970,96.025 57.119,96.754 57.399 C 96.977 57.485,97.243 57.995,97.344 58.533 C 97.445 59.071,97.704 59.580,97.921 59.663 C 98.137 59.746,98.315 60.119,98.315 60.492 C 98.315 60.934,98.510 61.222,98.876 61.317 C 99.256 61.417,99.438 61.700,99.438 62.193 C 99.438 62.594,99.691 63.174,100.000 63.483 C 100.309 63.792,100.562 64.347,100.562 64.717 C 100.562 65.087,100.751 65.462,100.983 65.551 C 101.261 65.658,101.404 66.098,101.404 66.845 C 101.404 67.603,101.590 68.163,101.966 68.539 C 102.759 69.332,102.794 73.330,102.015 74.109 C 101.321 74.803,100.922 75.798,101.545 75.281 C 101.911 74.977,101.951 74.993,101.802 75.382 C 101.688 75.680,101.771 75.843,102.037 75.843 C 102.359 75.843,102.460 76.320,102.502 78.034 C 102.560 80.441,101.805 81.770,100.144 82.187 C 99.756 82.285,99.438 82.532,99.438 82.736 C 99.438 82.941,99.185 83.188,98.876 83.287 C 98.567 83.385,98.315 83.646,98.315 83.867 C 98.315 84.089,98.140 84.270,97.926 84.270 C 97.712 84.270,97.471 84.522,97.391 84.831 C 97.310 85.140,97.042 85.393,96.796 85.393 C 96.550 85.393,96.348 85.583,96.348 85.815 C 96.348 86.046,96.167 86.236,95.946 86.236 C 95.725 86.236,95.463 86.489,95.365 86.798 C 95.267 87.107,95.006 87.360,94.784 87.360 C 94.563 87.360,94.382 87.541,94.382 87.762 C 94.382 87.983,94.129 88.245,93.820 88.343 C 93.511 88.441,93.258 88.702,93.258 88.923 C 93.258 89.145,93.069 89.326,92.837 89.326 C 92.605 89.326,92.416 89.515,92.416 89.747 C 92.416 89.979,92.163 90.421,91.854 90.730 C 91.545 91.039,91.292 91.372,91.292 91.470 C 91.292 91.567,90.875 92.041,90.365 92.523 C 89.855 93.005,89.354 93.620,89.250 93.890 C 89.147 94.161,88.869 94.382,88.632 94.382 C 88.396 94.382,88.202 94.558,88.202 94.773 C 88.202 94.989,88.013 95.237,87.781 95.326 C 87.549 95.415,87.360 95.746,87.360 96.061 C 87.360 96.377,87.107 96.851,86.798 97.116 C 86.489 97.380,86.236 97.758,86.236 97.956 C 86.236 98.153,86.061 98.315,85.847 98.315 C 85.634 98.315,85.384 98.536,85.293 98.806 C 85.032 99.584,84.039 101.200,83.692 101.414 C 83.365 101.616,82.821 102.478,82.320 103.589 C 82.161 103.940,81.839 104.301,81.605 104.391 C 81.371 104.481,81.180 104.850,81.180 105.210 C 81.180 105.571,81.040 105.952,80.870 106.057 C 80.700 106.162,80.382 106.644,80.164 107.127 C 79.777 107.984,79.517 108.476,78.922 109.480 C 78.762 109.751,78.482 110.320,78.299 110.744 C 78.116 111.169,77.759 111.517,77.505 111.517 C 77.161 111.517,77.079 111.701,77.183 112.241 C 77.272 112.710,77.111 113.249,76.722 113.774 C 76.393 114.220,76.124 114.864,76.124 115.205 C 76.124 115.547,75.950 116.026,75.739 116.270 C 75.527 116.514,75.233 117.093,75.084 117.556 L 74.813 118.399 70.553 118.476 C 67.258 118.536,66.285 118.473,66.259 118.196 C 66.241 117.998,66.145 118.216,66.047 118.680 C 65.906 119.342,65.698 119.542,65.076 119.613 C 64.641 119.663,64.041 119.948,63.743 120.245 C 63.446 120.543,62.963 120.787,62.671 120.787 C 62.378 120.787,62.066 120.976,61.977 121.208 C 61.888 121.440,61.622 121.629,61.385 121.629 C 61.149 121.629,60.955 121.819,60.955 122.051 C 60.955 122.282,60.787 122.472,60.583 122.472 C 60.165 122.472,58.989 123.627,58.989 124.037 C 58.989 124.183,58.551 124.704,58.015 125.195 C 57.480 125.686,56.963 126.403,56.866 126.788 C 56.770 127.173,56.513 127.556,56.295 127.639 C 56.073 127.724,55.899 128.171,55.899 128.652 C 55.899 129.157,55.725 129.579,55.478 129.674 C 55.170 129.792,55.056 130.276,55.056 131.472 C 55.056 133.579,54.701 134.488,53.790 134.717 L 53.065 134.899 53.148 148.559 L 53.230 162.219 53.933 162.318 C 54.889 162.452,55.045 162.789,55.061 164.747 C 55.069 165.776,55.235 166.645,55.486 166.978 C 55.713 167.278,55.899 167.941,55.899 168.453 C 55.899 169.086,56.031 169.382,56.315 169.382 C 56.544 169.382,56.810 169.698,56.907 170.084 C 57.004 170.471,57.181 170.787,57.300 170.787 C 57.419 170.787,57.673 171.166,57.865 171.629 C 58.057 172.093,58.388 172.472,58.601 172.472 C 58.814 172.472,58.989 172.732,58.989 173.050 C 58.989 173.368,59.107 173.556,59.250 173.467 C 59.394 173.378,59.679 173.530,59.882 173.806 C 60.086 174.081,60.622 174.494,61.074 174.723 C 62.731 175.565,62.921 175.702,62.921 176.050 C 62.921 176.245,63.228 176.404,63.604 176.404 C 64.238 176.404,65.169 177.043,65.168 177.478 C 65.168 177.583,66.019 177.669,67.060 177.669 C 68.897 177.669,68.957 177.691,69.097 178.433 C 69.210 179.032,69.333 179.140,69.663 178.929 C 69.895 178.781,70.211 178.660,70.365 178.660 C 70.520 178.660,70.474 178.770,70.263 178.903 C 70.018 179.058,70.349 179.134,71.176 179.114 C 71.889 179.097,72.472 178.986,72.472 178.867 C 72.472 178.485,74.358 178.638,74.698 179.048 C 74.879 179.266,75.103 179.909,75.195 180.477 C 75.287 181.045,75.534 181.575,75.743 181.656 C 75.961 181.739,76.124 182.213,76.124 182.764 C 76.124 183.352,76.284 183.787,76.537 183.884 C 76.765 183.972,77.031 184.469,77.128 184.989 C 77.226 185.509,77.482 186.081,77.698 186.260 C 77.914 186.439,78.090 186.823,78.090 187.113 C 78.090 187.403,78.343 187.893,78.652 188.202 C 78.961 188.511,79.213 188.958,79.213 189.194 C 79.213 189.431,79.395 189.694,79.618 189.779 C 79.840 189.865,80.105 190.312,80.206 190.773 C 80.307 191.234,80.568 191.679,80.785 191.763 C 81.002 191.846,81.180 192.275,81.180 192.717 C 81.180 193.232,81.381 193.627,81.742 193.820 C 82.051 193.986,82.303 194.291,82.303 194.498 C 82.303 194.705,82.493 195.032,82.725 195.225 C 82.956 195.417,83.146 195.803,83.146 196.083 C 83.146 196.363,83.399 196.672,83.708 196.770 C 84.017 196.868,84.270 197.192,84.270 197.491 C 84.270 197.789,84.403 198.034,84.565 198.034 C 84.728 198.034,84.993 198.413,85.154 198.876 C 85.316 199.340,85.625 199.719,85.842 199.719 C 86.059 199.719,86.236 199.972,86.236 200.281 C 86.236 200.590,86.420 200.843,86.645 200.843 C 86.889 200.843,87.127 201.237,87.238 201.826 C 87.343 202.389,87.589 202.809,87.812 202.809 C 88.027 202.809,88.202 202.990,88.202 203.211 C 88.202 203.433,88.455 203.694,88.764 203.792 C 89.073 203.890,89.326 204.099,89.326 204.257 C 89.326 204.527,89.691 204.960,92.205 207.666 C 92.784 208.289,93.258 209.032,93.258 209.315 C 93.258 209.644,93.462 209.831,93.820 209.831 C 94.195 209.831,94.382 210.019,94.382 210.393 C 94.382 210.705,94.569 210.955,94.803 210.955 C 95.035 210.955,95.225 211.145,95.225 211.376 C 95.225 211.608,95.426 211.798,95.672 211.798 C 95.919 211.798,96.186 212.051,96.267 212.360 C 96.348 212.669,96.539 212.921,96.693 212.921 C 97.099 212.921,98.304 214.125,98.310 214.537 C 98.312 214.730,98.462 214.888,98.642 214.888 C 98.822 214.888,99.170 215.070,99.415 215.294 C 99.659 215.517,100.460 216.228,101.194 216.874 C 101.928 217.520,102.528 218.209,102.528 218.405 C 102.528 218.600,102.718 218.833,102.949 218.922 C 103.181 219.011,103.371 219.277,103.371 219.514 C 103.371 219.757,103.615 219.944,103.933 219.944 C 104.242 219.944,104.494 220.063,104.494 220.209 C 104.494 220.355,104.936 220.955,105.476 221.543 C 106.016 222.131,106.459 222.866,106.459 223.177 C 106.460 223.487,106.713 223.899,107.022 224.092 C 107.331 224.285,107.584 224.631,107.584 224.862 C 107.584 225.092,107.705 225.281,107.852 225.281 C 107.999 225.281,108.246 225.738,108.400 226.297 C 108.555 226.856,108.892 227.547,109.149 227.831 C 109.450 228.164,109.573 228.654,109.492 229.202 C 109.408 229.778,109.485 230.056,109.730 230.056 C 110.747 230.056,110.934 232.925,109.986 233.974 C 109.558 234.446,109.575 234.468,110.273 234.335 C 111.443 234.111,111.508 234.519,111.513 242.073 C 111.516 248.066,111.581 249.200,111.931 249.334 C 112.158 249.421,112.423 249.914,112.520 250.429 C 112.617 250.944,112.873 251.434,113.089 251.517 C 113.306 251.600,113.483 252.000,113.483 252.405 C 113.483 252.906,113.663 253.190,114.045 253.289 C 114.354 253.370,114.607 253.542,114.607 253.672 C 114.607 254.070,116.012 255.337,116.454 255.337 C 116.684 255.337,116.944 255.527,117.033 255.758 C 117.122 255.990,117.446 256.180,117.753 256.180 C 118.075 256.180,118.373 256.418,118.458 256.742 C 118.586 257.232,118.841 257.303,120.476 257.303 C 122.703 257.303,123.778 257.842,123.308 258.720 C 123.041 259.218,123.079 259.239,123.775 258.974 C 124.342 258.758,124.591 258.777,124.766 259.048 C 124.916 259.280,125.076 259.309,125.211 259.129 C 125.341 258.956,129.031 258.802,134.831 258.728 C 148.680 258.551,151.423 258.561,155.687 258.806 C 159.268 259.011,159.534 258.992,159.363 258.546 C 159.079 257.805,160.030 257.303,161.720 257.303 C 162.747 257.303,163.267 257.179,163.371 256.910 C 163.454 256.693,163.956 256.435,164.486 256.335 C 165.059 256.228,165.449 255.989,165.449 255.746 C 165.449 255.521,165.576 255.337,165.730 255.337 C 166.368 255.337,169.382 252.213,169.382 251.552 C 169.382 251.339,169.552 250.994,169.760 250.785 C 169.968 250.577,170.227 249.936,170.335 249.361 C 170.525 248.345,170.871 248.129,172.051 248.285 C 172.205 248.306,172.110 248.149,171.840 247.937 C 171.109 247.363,171.147 244.790,171.892 244.392 C 172.223 244.215,175.063 244.101,179.165 244.101 C 186.784 244.101,186.236 243.911,186.236 246.551 C 186.236 247.625,186.369 248.210,186.664 248.425 C 186.899 248.597,187.171 249.243,187.268 249.860 C 187.365 250.478,187.615 251.084,187.824 251.208 C 188.032 251.331,188.202 251.547,188.202 251.687 C 188.202 251.826,188.487 252.243,188.834 252.613 C 189.182 252.982,189.797 253.654,190.202 254.106 C 191.896 255.998,194.271 257.303,196.020 257.303 C 197.780 257.303,198.315 257.615,198.315 258.641 C 198.315 259.117,198.454 259.282,198.806 259.224 C 199.077 259.180,199.477 259.256,199.697 259.393 C 199.984 259.573,200.053 259.532,199.943 259.246 C 199.825 258.938,200.116 258.838,201.230 258.804 C 202.021 258.779,203.174 258.737,203.792 258.710 C 205.930 258.616,206.733 258.743,207.011 259.218 C 207.258 259.642,207.289 259.633,207.317 259.129 C 207.334 258.820,207.409 258.717,207.483 258.901 C 207.580 259.138,207.776 259.100,208.164 258.768 C 208.674 258.331,208.708 257.883,208.708 251.623 L 208.708 244.944 203.949 244.944 C 199.219 244.944,198.829 244.871,198.716 243.961 C 198.697 243.806,198.662 240.551,198.638 236.728 L 198.596 229.775 196.199 229.775 C 194.178 229.775,193.772 229.698,193.608 229.284 C 193.455 228.896,193.383 228.968,193.266 229.622 C 193.073 230.699,192.544 230.836,188.433 230.871 C 185.823 230.893,185.064 230.810,184.719 230.465 C 183.923 229.670,180.264 230.010,180.056 230.899 C 179.739 232.254,174.283 232.011,174.505 230.651 C 174.603 230.048,170.552 229.807,170.190 230.394 C 169.507 231.502,161.426 230.887,161.289 229.717 C 161.197 228.922,160.261 228.703,159.988 229.413 C 159.912 229.612,159.466 229.775,158.998 229.775 C 157.996 229.775,158.032 229.416,158.138 238.384 C 158.173 241.342,158.118 244.029,158.015 244.353 L 157.827 244.944 141.414 244.944 L 125.000 244.944 124.955 244.031 C 124.821 241.280,125.070 235.241,125.322 235.151 C 125.479 235.096,125.218 234.813,124.742 234.524 C 123.896 234.009,123.876 233.949,123.876 231.838 C 123.876 230.176,123.763 229.554,123.385 229.135 C 123.050 228.765,122.900 228.155,122.914 227.220 C 122.930 226.129,122.830 225.816,122.422 225.686 C 122.058 225.571,121.910 225.246,121.910 224.560 C 121.910 223.970,121.692 223.377,121.348 223.034 C 121.039 222.725,120.787 222.106,120.787 221.659 C 120.787 221.196,120.605 220.777,120.365 220.685 C 120.133 220.596,119.944 220.349,119.944 220.137 C 119.944 219.924,119.691 219.521,119.382 219.242 C 119.073 218.962,118.820 218.437,118.820 218.074 C 118.820 217.712,118.687 217.416,118.525 217.416 C 118.362 217.416,118.101 217.047,117.943 216.596 C 117.786 216.144,117.477 215.706,117.256 215.621 C 117.035 215.536,116.854 215.304,116.854 215.104 C 116.854 214.905,116.601 214.584,116.292 214.391 C 115.983 214.198,115.730 213.865,115.730 213.651 C 115.730 213.437,115.541 213.190,115.309 213.101 C 115.077 213.012,114.888 212.670,114.888 212.342 C 114.888 211.981,114.665 211.687,114.326 211.598 C 114.017 211.517,113.764 211.276,113.764 211.063 C 113.764 210.849,113.583 210.674,113.362 210.674 C 113.140 210.674,112.879 210.421,112.781 210.112 C 112.683 209.803,112.422 209.551,112.200 209.551 C 111.979 209.551,111.798 209.430,111.798 209.282 C 111.798 208.801,110.381 207.584,109.821 207.584 C 109.520 207.584,109.117 207.331,108.924 207.022 C 108.731 206.713,108.414 206.461,108.219 206.461 C 108.024 206.461,107.865 206.340,107.865 206.193 C 107.865 205.907,106.544 204.494,106.277 204.494 C 105.963 204.494,104.785 203.223,104.780 202.879 C 104.777 202.686,104.582 202.528,104.345 202.528 C 104.109 202.528,103.837 202.325,103.742 202.076 C 103.526 201.515,101.452 199.438,101.107 199.438 C 100.967 199.438,100.774 199.122,100.677 198.736 C 100.580 198.350,100.397 198.034,100.269 198.034 C 100.142 198.034,99.949 197.749,99.839 197.402 C 99.626 196.723,98.457 195.506,98.019 195.506 C 97.873 195.506,97.753 195.358,97.753 195.178 C 97.753 194.998,97.564 194.650,97.333 194.406 C 96.292 193.302,95.506 192.157,95.506 191.743 C 95.506 191.495,95.402 191.292,95.275 191.292 C 95.036 191.292,93.539 189.144,93.539 188.801 C 93.539 188.695,93.287 188.392,92.978 188.127 C 92.669 187.862,92.416 187.329,92.416 186.941 C 92.416 186.553,92.286 186.236,92.128 186.236 C 91.970 186.236,91.720 185.920,91.573 185.534 C 91.426 185.147,91.182 184.831,91.031 184.831 C 90.880 184.831,90.674 184.398,90.575 183.868 C 90.476 183.338,90.217 182.836,90.000 182.753 C 89.784 182.670,89.607 182.288,89.607 181.905 C 89.607 181.521,89.408 181.096,89.165 180.961 C 88.922 180.825,88.651 180.175,88.563 179.518 C 88.475 178.860,88.231 178.256,88.022 178.176 C 87.812 178.096,87.640 177.684,87.640 177.261 C 87.640 176.838,87.388 176.263,87.079 175.983 C 86.702 175.643,86.517 175.118,86.517 174.395 C 86.517 173.689,86.322 173.120,85.955 172.753 C 85.603 172.401,85.393 171.816,85.393 171.188 C 85.393 170.636,85.204 169.995,84.972 169.763 C 84.701 169.492,84.551 168.798,84.551 167.817 L 84.551 166.292 83.638 166.277 C 72.776 166.101,71.263 166.021,70.800 165.602 C 70.537 165.364,70.051 165.169,69.722 165.169 C 69.393 165.169,68.960 164.970,68.761 164.727 C 68.562 164.485,68.178 164.078,67.907 163.822 C 67.236 163.189,67.135 133.146,67.804 133.146 C 68.018 133.146,68.259 132.893,68.340 132.584 C 68.421 132.275,68.688 132.022,68.934 132.022 C 69.181 132.022,69.382 131.846,69.382 131.631 C 69.382 130.967,70.065 130.899,76.694 130.899 C 84.155 130.899,84.551 130.773,84.551 128.400 C 84.551 127.549,84.685 127.174,85.042 127.027 C 85.382 126.888,85.545 126.486,85.570 125.723 C 85.592 125.065,85.790 124.486,86.062 124.288 C 86.331 124.091,86.517 123.554,86.517 122.975 C 86.517 122.399,86.748 121.729,87.079 121.348 C 87.388 120.992,87.640 120.419,87.640 120.076 C 87.640 119.732,87.822 119.300,88.044 119.116 C 88.266 118.932,88.530 118.402,88.632 117.939 C 88.734 117.476,88.995 117.029,89.212 116.945 C 89.429 116.862,89.607 116.424,89.607 115.972 C 89.607 115.517,89.787 115.082,90.011 114.996 C 90.233 114.911,90.498 114.464,90.599 114.002 C 90.700 113.541,90.961 113.096,91.178 113.013 C 91.395 112.929,91.573 112.631,91.573 112.350 C 91.573 112.068,91.763 111.648,91.994 111.417 C 92.226 111.185,92.416 110.867,92.416 110.710 C 92.416 110.553,92.663 110.252,92.964 110.041 C 93.266 109.830,93.651 109.348,93.819 108.972 C 94.272 107.957,94.861 106.970,95.130 106.774 C 95.260 106.679,95.547 106.251,95.768 105.822 C 95.989 105.394,96.526 104.644,96.961 104.156 C 97.397 103.669,97.753 103.166,97.753 103.039 C 97.753 102.913,97.942 102.809,98.174 102.809 C 98.406 102.809,98.596 102.627,98.596 102.405 C 98.596 101.922,100.134 100.046,102.814 97.259 C 103.893 96.138,104.775 95.095,104.775 94.942 C 104.775 94.788,104.896 94.663,105.043 94.663 C 105.392 94.663,106.742 93.313,106.742 92.965 C 106.742 92.817,106.918 92.697,107.134 92.697 C 107.350 92.697,107.915 92.254,108.389 91.713 C 108.864 91.173,109.333 90.730,109.431 90.730 C 109.677 90.730,111.239 89.399,111.315 89.126 C 111.349 89.004,111.471 88.936,111.587 88.975 C 111.703 89.013,111.798 88.919,111.798 88.764 C 111.798 88.610,111.974 88.483,112.189 88.483 C 112.404 88.483,112.653 88.294,112.742 88.062 C 112.831 87.830,113.083 87.640,113.301 87.640 C 113.520 87.640,113.765 87.388,113.845 87.079 C 113.947 86.692,114.229 86.517,114.751 86.517 C 115.363 86.517,115.471 86.422,115.309 86.025 C 115.198 85.755,115.041 83.799,114.959 81.679 L 114.810 77.825 115.523 77.554 C 116.234 77.283,116.339 76.262,116.037 72.575 C 116.023 72.400,115.769 72.193,115.473 72.116 C 114.888 71.963,114.545 68.661,114.925 66.837 C 115.023 66.367,115.038 66.048,114.959 66.128 C 114.463 66.623,113.764 65.622,113.764 64.417 C 113.764 63.567,113.613 63.013,113.324 62.802 C 113.082 62.625,112.813 61.949,112.726 61.300 C 112.639 60.652,112.394 59.977,112.183 59.801 C 111.971 59.626,111.798 59.244,111.798 58.954 C 111.798 58.664,111.545 58.174,111.236 57.865 C 110.927 57.556,110.674 57.001,110.674 56.631 C 110.674 56.261,110.477 55.883,110.236 55.791 C 109.922 55.670,109.822 55.322,109.885 54.567 C 109.987 53.327,111.964 52.732,112.257 53.852 C 112.376 54.308,112.631 54.357,114.360 54.259 C 116.112 54.160,116.343 54.207,116.468 54.684 C 116.578 55.107,116.806 55.197,117.542 55.111 C 118.564 54.992,119.662 55.441,119.664 55.979 C 119.664 56.196,120.134 56.323,120.952 56.328 C 121.872 56.334,122.317 56.475,122.510 56.820 C 122.667 57.100,123.116 57.303,123.579 57.303 C 124.019 57.303,124.446 57.481,124.530 57.698 C 124.613 57.915,125.058 58.176,125.519 58.277 C 125.980 58.378,126.427 58.643,126.513 58.865 C 126.598 59.088,126.861 59.270,127.098 59.270 C 127.335 59.270,127.528 59.394,127.528 59.547 C 127.528 59.699,127.971 60.009,128.511 60.235 C 129.052 60.461,129.494 60.778,129.494 60.941 C 129.494 61.103,129.680 61.236,129.906 61.236 C 130.132 61.236,130.453 61.489,130.618 61.798 C 130.783 62.107,131.104 62.360,131.330 62.360 C 131.556 62.360,131.742 62.476,131.742 62.619 C 131.742 62.762,132.626 63.774,133.708 64.868 C 134.789 65.963,135.674 66.983,135.674 67.137 C 135.674 67.873,137.687 67.397,138.688 66.425 C 139.249 65.880,140.001 65.361,140.360 65.271 C 140.718 65.181,141.011 64.992,141.011 64.850 C 141.011 64.709,141.327 64.473,141.713 64.326 C 142.100 64.179,142.416 63.943,142.416 63.801 C 142.416 63.660,142.725 63.467,143.102 63.372 C 143.480 63.277,144.207 62.816,144.717 62.348 C 145.228 61.879,145.930 61.424,146.278 61.336 C 147.024 61.146,147.047 61.052,146.489 60.494 C 146.257 60.262,146.067 59.828,146.067 59.530 C 146.067 59.233,145.878 58.989,145.646 58.989 C 145.414 58.989,145.225 58.888,145.225 58.765 C 145.225 58.641,144.786 58.104,144.250 57.571 C 143.715 57.037,143.272 56.487,143.267 56.347 C 143.257 56.049,141.082 53.933,140.787 53.933 C 140.676 53.933,140.180 53.490,139.684 52.949 C 139.187 52.409,138.660 51.966,138.511 51.966 C 138.362 51.966,138.160 51.713,138.062 51.404 C 137.964 51.096,137.702 50.843,137.481 50.843 C 137.260 50.843,137.079 50.653,137.079 50.421 C 137.079 50.187,136.829 50.000,136.517 50.000 C 136.208 50.000,135.702 49.747,135.393 49.438 C 135.084 49.129,134.701 48.876,134.542 48.876 C 134.382 48.876,134.179 48.687,134.090 48.455 C 134.001 48.223,133.689 48.034,133.397 48.034 C 133.104 48.034,132.612 47.781,132.303 47.472 C 131.994 47.163,131.508 46.910,131.223 46.910 C 130.938 46.910,130.476 46.657,130.197 46.348 C 129.917 46.039,129.388 45.787,129.021 45.787 C 128.654 45.787,128.280 45.597,128.191 45.365 C 128.103 45.133,127.726 44.944,127.355 44.944 C 126.984 44.944,126.463 44.691,126.199 44.382 C 125.878 44.008,125.370 43.820,124.677 43.820 C 124.104 43.820,123.461 43.646,123.248 43.433 C 123.035 43.219,122.204 42.955,121.402 42.844 C 120.431 42.711,119.944 42.512,119.944 42.249 C 119.944 41.950,119.501 41.854,118.128 41.854 C 116.599 41.854,116.264 41.765,116.011 41.292 C 115.744 40.793,115.421 40.730,113.122 40.726 C 110.597 40.722,110.033 40.603,109.803 40.028 C 109.742 39.874,109.210 39.787,108.622 39.835 M171.475 52.609 C 171.312 52.796,171.095 53.171,170.992 53.441 C 170.729 54.129,161.256 54.193,160.574 53.511 C 160.342 53.279,160.017 53.090,159.852 53.090 C 159.545 53.090,159.486 53.301,159.478 54.424 C 159.476 54.772,159.364 55.056,159.231 55.056 C 159.098 55.056,159.008 55.530,159.031 56.110 C 159.063 56.917,159.100 56.988,159.188 56.414 C 159.332 55.474,159.925 55.226,160.502 55.864 C 161.070 56.492,161.224 65.208,160.679 65.865 C 159.788 66.939,160.570 67.413,163.170 67.377 C 164.559 67.358,166.064 67.500,166.628 67.704 C 167.646 68.072,168.706 67.913,168.412 67.437 C 167.977 66.734,169.529 66.292,172.464 66.284 C 174.610 66.277,175.287 66.197,174.930 65.989 C 174.359 65.657,174.160 53.857,174.719 53.511 C 175.168 53.234,175.044 52.844,174.508 52.848 C 173.682 52.855,172.482 52.631,172.284 52.434 C 172.022 52.171,171.815 52.216,171.475 52.609 M190.811 53.877 L 189.347 53.961 189.266 56.405 C 189.193 58.624,189.132 58.856,188.609 58.931 C 188.056 59.010,188.037 59.153,188.151 62.358 L 188.270 65.703 187.464 65.907 L 186.657 66.112 187.608 66.360 C 188.131 66.497,188.741 66.790,188.962 67.012 C 189.250 67.300,190.054 67.416,191.760 67.416 C 193.806 67.416,194.172 67.487,194.283 67.909 C 194.395 68.338,194.701 68.389,196.645 68.300 L 198.878 68.199 199.260 69.107 C 199.489 69.651,199.720 69.888,199.838 69.698 C 199.945 69.524,200.400 69.382,200.848 69.382 L 201.664 69.382 201.745 66.924 C 201.821 64.599,201.861 64.461,202.474 64.374 C 203.002 64.300,203.061 64.208,202.789 63.880 C 202.442 63.462,202.558 59.341,202.934 58.733 C 203.038 58.564,203.441 58.427,203.829 58.427 C 204.470 58.427,204.494 58.387,204.093 57.986 C 203.850 57.743,203.652 57.103,203.652 56.564 C 203.652 55.937,203.543 55.652,203.349 55.772 C 202.721 56.160,198.189 55.915,197.862 55.476 C 197.634 55.168,196.984 55.056,195.428 55.056 C 193.567 55.056,193.242 54.978,192.790 54.424 C 192.355 53.890,192.048 53.805,190.811 53.877 M186.906 57.147 C 186.820 57.369,186.800 57.780,186.860 58.059 C 186.929 58.377,187.025 58.225,187.116 57.654 C 187.269 56.698,187.170 56.458,186.906 57.147 M176.225 60.674 C 176.225 62.142,176.272 62.742,176.330 62.008 C 176.388 61.275,176.388 60.074,176.330 59.340 C 176.272 58.606,176.225 59.206,176.225 60.674 M218.187 61.591 C 217.958 61.941,217.680 62.636,217.571 63.136 C 217.460 63.640,217.193 64.045,216.972 64.045 C 216.708 64.045,216.573 64.357,216.573 64.966 C 216.573 65.472,216.401 66.136,216.192 66.440 C 215.982 66.745,215.656 67.468,215.468 68.048 C 215.279 68.627,215.008 69.101,214.866 69.101 C 214.723 69.101,214.607 69.476,214.607 69.934 C 214.607 70.479,214.413 70.871,214.045 71.067 C 213.001 71.626,214.093 73.186,215.654 73.366 C 216.184 73.426,216.459 73.637,216.514 74.023 C 216.582 74.501,216.765 74.575,217.663 74.490 C 218.340 74.425,218.879 74.537,219.139 74.797 C 219.364 75.023,219.816 75.292,220.142 75.395 C 220.469 75.499,220.889 75.768,221.076 75.994 C 221.264 76.220,221.761 76.404,222.182 76.404 C 222.602 76.404,223.175 76.657,223.455 76.966 C 223.737 77.277,224.320 77.528,224.763 77.528 C 225.328 77.528,225.569 77.672,225.585 78.020 C 225.599 78.318,225.765 78.152,226.007 77.598 C 226.226 77.096,226.532 76.685,226.686 76.685 C 226.840 76.685,226.966 76.322,226.966 75.877 C 226.966 75.433,227.156 74.911,227.388 74.719 C 227.619 74.527,227.809 74.132,227.809 73.842 C 227.809 73.552,228.062 73.062,228.371 72.753 C 228.684 72.440,228.933 71.816,228.933 71.346 C 228.933 70.848,229.164 70.302,229.494 70.019 C 229.837 69.726,230.056 69.190,230.056 68.647 C 230.056 68.115,230.226 67.692,230.478 67.595 C 231.754 67.105,229.998 65.169,228.276 65.169 C 228.016 65.169,227.587 64.916,227.322 64.607 C 227.023 64.257,226.494 64.045,225.921 64.045 C 225.290 64.045,225.000 63.912,225.000 63.624 C 225.000 63.343,224.719 63.202,224.160 63.202 C 223.624 63.202,223.192 62.999,222.969 62.640 C 222.718 62.240,222.313 62.079,221.559 62.079 C 220.848 62.079,220.342 61.894,220.019 61.517 C 219.386 60.778,218.702 60.805,218.187 61.591 M170.014 68.733 C 170.284 68.804,170.727 68.804,170.997 68.733 C 171.268 68.662,171.046 68.604,170.506 68.604 C 169.965 68.604,169.744 68.662,170.014 68.733 M244.171 75.180 C 243.978 75.261,243.820 75.507,243.820 75.726 C 243.820 75.945,243.631 76.124,243.399 76.124 C 243.167 76.124,242.977 76.282,242.977 76.475 C 242.977 76.803,242.149 77.934,241.161 78.956 C 240.924 79.201,240.730 79.479,240.730 79.574 C 240.730 79.872,239.416 81.180,239.116 81.180 C 238.958 81.180,238.763 81.433,238.683 81.742 C 238.602 82.051,238.361 82.303,238.148 82.303 C 237.935 82.303,237.739 82.585,237.713 82.930 C 237.687 83.275,237.446 83.717,237.178 83.913 C 236.657 84.294,236.879 84.597,238.272 85.408 C 238.543 85.565,238.764 85.864,238.764 86.073 C 238.764 86.281,238.985 86.526,239.256 86.617 C 240.610 87.073,242.697 88.668,242.697 89.248 C 242.697 89.445,242.949 89.607,243.258 89.607 C 243.567 89.607,243.820 89.750,243.820 89.926 C 243.820 90.301,245.133 91.573,245.520 91.573 C 245.667 91.573,245.787 91.774,245.787 92.021 C 245.787 92.267,246.039 92.534,246.348 92.615 C 246.657 92.696,246.910 92.937,246.910 93.151 C 246.910 93.364,247.163 93.539,247.472 93.539 C 247.781 93.539,248.034 93.374,248.034 93.171 C 248.034 92.968,248.287 92.531,248.596 92.200 C 248.904 91.868,249.157 91.532,249.157 91.454 C 249.157 91.375,249.600 90.868,250.140 90.328 C 250.681 89.787,251.124 89.222,251.124 89.073 C 251.124 88.924,251.376 88.722,251.685 88.624 C 251.994 88.526,252.247 88.264,252.247 88.043 C 252.247 87.822,252.437 87.640,252.669 87.640 C 252.900 87.640,253.090 87.424,253.090 87.159 C 253.090 86.894,253.337 86.420,253.638 86.105 C 254.960 84.728,255.337 84.250,255.337 83.951 C 255.337 83.574,254.187 82.461,253.542 82.214 C 253.293 82.118,253.090 81.847,253.090 81.610 C 253.090 81.373,252.900 81.180,252.669 81.180 C 252.437 81.180,252.247 80.990,252.247 80.758 C 252.247 80.527,252.046 80.337,251.800 80.337 C 251.553 80.337,251.286 80.084,251.205 79.775 C 251.103 79.385,250.822 79.213,250.284 79.213 C 249.715 79.213,249.334 78.954,248.842 78.232 C 248.475 77.693,248.063 77.250,247.926 77.249 C 247.790 77.248,247.267 76.811,246.764 76.277 C 245.860 75.319,244.854 74.893,244.171 75.180 M265.214 95.716 C 264.526 96.372,263.813 96.834,262.711 97.341 C 262.209 97.572,261.798 97.885,261.798 98.037 C 261.798 98.190,261.628 98.315,261.420 98.315 C 261.212 98.315,260.813 98.567,260.534 98.876 C 260.254 99.185,259.822 99.438,259.575 99.438 C 259.327 99.438,258.966 99.691,258.773 100.000 C 258.580 100.309,258.234 100.562,258.003 100.562 C 257.773 100.562,257.584 100.676,257.584 100.815 C 257.584 100.955,257.205 101.201,256.742 101.362 C 255.773 101.700,255.643 102.371,256.461 102.809 C 256.770 102.974,257.022 103.295,257.022 103.521 C 257.022 103.747,257.147 103.933,257.300 103.933 C 257.452 103.933,257.762 104.375,257.988 104.916 C 258.213 105.456,258.531 105.899,258.694 105.899 C 258.856 105.899,258.989 106.088,258.989 106.320 C 258.989 106.552,259.166 106.742,259.382 106.742 C 259.786 106.742,260.955 108.707,260.955 109.386 C 260.955 109.595,261.208 109.832,261.517 109.913 C 261.926 110.020,262.079 110.296,262.079 110.929 C 262.079 111.514,262.216 111.798,262.500 111.798 C 262.732 111.798,262.921 111.904,262.921 112.035 C 262.921 112.165,263.237 112.639,263.623 113.088 C 264.168 113.722,264.325 113.795,264.325 113.413 C 264.326 113.123,264.538 112.921,264.844 112.921 C 265.129 112.921,265.591 112.669,265.871 112.360 C 266.150 112.051,266.612 111.798,266.897 111.798 C 267.183 111.798,267.416 111.608,267.416 111.376 C 267.416 111.145,267.586 110.955,267.794 110.955 C 268.002 110.955,268.464 110.702,268.820 110.393 C 269.176 110.084,269.701 109.831,269.987 109.831 C 270.272 109.831,270.506 109.648,270.506 109.423 C 270.506 109.178,270.900 108.940,271.489 108.830 C 272.052 108.724,272.472 108.479,272.472 108.255 C 272.472 108.041,272.630 107.863,272.823 107.860 C 273.016 107.858,273.468 107.546,273.826 107.168 L 274.478 106.480 273.896 105.856 C 273.576 105.512,273.315 105.079,273.315 104.893 C 273.315 104.707,273.125 104.482,272.893 104.393 C 272.662 104.304,272.472 104.057,272.472 103.844 C 272.472 103.632,272.219 103.229,271.910 102.949 C 271.601 102.670,271.348 102.208,271.348 101.923 C 271.348 101.638,271.159 101.404,270.927 101.404 C 270.695 101.404,270.506 101.266,270.506 101.098 C 270.506 100.929,270.253 100.469,269.944 100.077 C 269.635 99.684,269.382 99.127,269.382 98.839 C 269.382 98.550,269.188 98.315,268.952 98.315 C 268.715 98.315,268.438 98.093,268.336 97.823 C 268.233 97.553,267.984 97.164,267.783 96.960 C 267.581 96.756,267.416 96.359,267.416 96.077 C 267.416 95.163,266.033 94.936,265.214 95.716 M277.187 122.051 C 277.120 122.520,276.858 122.627,275.596 122.699 C 274.761 122.746,273.904 122.966,273.680 123.190 C 273.434 123.436,272.719 123.596,271.864 123.596 C 270.879 123.596,270.238 123.765,269.740 124.157 C 269.347 124.466,268.821 124.723,268.572 124.728 C 268.178 124.735,268.183 124.774,268.610 125.022 C 268.960 125.227,269.101 125.664,269.101 126.545 C 269.101 127.360,269.247 127.863,269.529 128.021 C 269.791 128.167,270.024 128.856,270.129 129.790 C 270.223 130.632,270.484 131.532,270.709 131.791 C 271.002 132.129,271.090 132.785,271.022 134.109 C 270.942 135.670,270.998 135.956,271.386 135.956 C 271.873 135.955,272.160 136.679,272.220 138.062 L 272.257 138.904 272.438 138.062 C 272.615 137.231,272.643 137.219,274.441 137.219 C 275.980 137.219,276.309 137.132,276.554 136.657 C 276.795 136.192,277.148 136.090,278.602 136.064 C 279.855 136.041,280.457 135.903,280.699 135.583 C 280.930 135.279,281.583 135.107,282.725 135.053 L 284.410 134.972 284.551 133.989 C 284.663 133.203,284.578 132.948,284.129 132.718 C 283.704 132.500,283.546 132.092,283.479 131.035 C 283.430 130.267,283.217 129.447,283.004 129.212 C 282.792 128.977,282.588 128.114,282.550 127.294 C 282.500 126.187,282.341 125.704,281.936 125.421 C 281.472 125.095,281.409 124.786,281.512 123.353 L 281.634 121.669 279.450 121.579 C 277.445 121.496,277.260 121.535,277.187 122.051 M270.650 149.610 C 270.270 149.888,269.207 150.000,266.941 150.000 C 265.194 150.000,263.764 150.114,263.764 150.253 C 263.764 150.566,262.222 151.124,261.358 151.124 C 261.008 151.124,260.675 151.262,260.618 151.432 C 260.562 151.602,259.930 151.807,259.214 151.887 C 258.252 151.996,257.877 152.171,257.775 152.562 C 257.679 152.930,257.383 153.090,256.798 153.090 C 256.311 153.090,255.891 153.267,255.797 153.511 C 255.703 153.758,255.282 153.933,254.784 153.933 C 254.262 153.933,253.933 154.077,253.933 154.307 C 253.933 154.743,250.956 157.022,250.386 157.022 C 250.174 157.022,250.000 157.204,250.000 157.425 C 250.000 157.646,249.747 157.908,249.438 158.006 C 249.129 158.104,248.876 158.365,248.876 158.586 C 248.876 158.808,248.695 158.989,248.474 158.989 C 248.253 158.989,247.991 159.242,247.893 159.551 C 247.795 159.860,247.562 160.112,247.374 160.112 C 247.187 160.112,246.874 160.460,246.680 160.885 C 245.973 162.429,245.647 162.921,245.331 162.921 C 245.154 162.921,244.943 163.174,244.862 163.483 C 244.782 163.792,244.514 164.045,244.268 164.045 C 243.944 164.045,243.820 164.316,243.820 165.028 C 243.820 165.715,243.693 166.011,243.399 166.011 C 243.136 166.011,242.978 166.277,242.978 166.716 C 242.978 167.104,242.725 167.638,242.416 167.902 C 242.096 168.176,241.854 168.731,241.854 169.189 C 241.854 169.633,241.601 170.317,241.292 170.710 C 240.930 171.170,240.730 171.849,240.730 172.620 C 240.730 173.419,240.592 173.869,240.313 173.977 C 239.957 174.113,239.884 175.531,239.821 183.595 C 239.737 194.367,239.792 194.146,237.465 192.960 C 236.235 192.333,235.257 192.234,235.558 192.767 C 235.717 193.048,235.681 193.048,235.378 192.767 C 234.993 192.409,224.151 192.222,224.508 192.579 C 224.598 192.669,224.506 193.143,224.305 193.632 C 224.104 194.122,223.973 194.932,224.015 195.432 C 224.057 195.932,223.989 196.277,223.863 196.199 C 223.737 196.122,223.543 196.206,223.431 196.387 C 223.300 196.599,223.350 196.641,223.571 196.504 C 223.789 196.369,223.970 196.506,224.069 196.882 C 224.153 197.206,224.334 197.472,224.471 197.472 C 224.607 197.472,224.719 197.725,224.719 198.034 C 224.719 198.343,224.624 198.596,224.508 198.596 C 224.392 198.596,224.271 199.480,224.238 200.562 C 224.204 201.675,224.296 202.528,224.449 202.528 C 224.605 202.528,224.698 203.564,224.669 204.986 L 224.620 207.444 224.459 205.478 L 224.298 203.511 224.111 206.461 C 223.872 210.240,224.028 255.462,224.281 255.871 C 224.386 256.041,224.337 256.180,224.174 256.180 C 224.010 256.180,223.876 256.433,223.876 256.742 C 223.876 257.301,224.064 257.303,270.365 257.303 L 316.854 257.303 316.854 224.860 L 316.854 192.416 311.403 192.416 C 306.315 192.416,305.874 192.457,304.788 193.037 C 302.692 194.156,302.680 194.118,302.594 186.036 C 302.532 180.278,302.593 178.871,302.934 178.214 C 303.339 177.434,303.327 177.403,302.506 177.057 L 301.661 176.702 301.744 174.517 C 301.817 172.569,301.765 172.300,301.264 172.044 C 300.845 171.829,300.680 171.419,300.617 170.429 C 300.557 169.498,300.410 169.101,300.125 169.101 C 299.862 169.101,299.719 168.807,299.719 168.268 C 299.719 167.723,299.525 167.332,299.157 167.135 C 298.797 166.942,298.596 166.547,298.596 166.031 C 298.596 165.590,298.434 165.167,298.237 165.091 C 298.040 165.016,297.566 164.317,297.184 163.540 C 296.802 162.762,296.268 162.063,295.997 161.988 C 295.727 161.912,295.506 161.649,295.506 161.403 C 295.506 161.156,295.316 160.955,295.084 160.955 C 294.853 160.955,294.663 160.813,294.663 160.638 C 294.663 160.275,290.220 155.899,289.851 155.899 C 289.717 155.899,289.607 155.725,289.607 155.513 C 289.607 155.300,289.259 155.055,288.834 154.967 C 288.409 154.879,287.643 154.421,287.132 153.949 C 286.604 153.462,285.893 153.090,285.490 153.090 C 285.015 153.090,284.730 152.903,284.632 152.528 C 284.517 152.090,284.249 151.966,283.414 151.966 C 282.825 151.966,282.153 151.776,281.920 151.543 C 281.688 151.310,280.914 151.061,280.200 150.989 C 278.743 150.841,278.371 150.680,278.371 150.194 C 278.372 149.951,277.562 149.884,275.401 149.948 C 273.156 150.015,272.277 149.937,271.807 149.629 C 271.273 149.279,271.107 149.277,270.650 149.610 M273.918 163.042 C 274.170 163.595,274.320 163.667,274.709 163.424 C 275.347 163.026,277.794 163.398,277.996 163.924 C 278.081 164.145,278.372 164.326,278.644 164.326 C 278.915 164.326,279.459 164.579,279.852 164.888 C 280.245 165.197,280.704 165.449,280.873 165.449 C 281.042 165.449,281.180 165.639,281.180 165.871 C 281.180 166.103,281.369 166.292,281.601 166.292 C 281.833 166.292,282.275 166.545,282.584 166.854 C 282.893 167.163,283.339 167.416,283.574 167.416 C 283.810 167.416,284.126 167.741,284.278 168.139 C 284.429 168.537,284.743 169.053,284.976 169.285 C 285.208 169.518,285.321 169.833,285.227 169.985 C 285.133 170.138,285.321 170.332,285.646 170.417 C 285.970 170.502,286.236 170.746,286.236 170.960 C 286.236 171.173,286.489 171.601,286.798 171.910 C 287.107 172.219,287.360 172.671,287.360 172.913 C 287.360 173.156,287.555 173.550,287.794 173.789 C 288.107 174.102,288.205 174.666,288.145 175.806 C 288.074 177.152,288.145 177.431,288.624 177.677 C 289.162 177.954,289.189 178.289,289.260 185.606 L 289.335 193.245 288.698 193.391 C 288.348 193.471,287.809 193.484,287.500 193.419 C 287.191 193.354,286.843 193.292,286.728 193.280 C 286.612 193.268,286.517 193.069,286.517 192.837 C 286.517 192.262,259.341 192.193,258.723 192.767 C 258.420 193.048,258.384 193.048,258.543 192.767 C 258.674 192.534,258.540 192.416,258.146 192.416 C 257.745 192.416,257.620 192.530,257.762 192.767 C 257.916 193.023,257.849 193.017,257.515 192.747 C 256.977 192.311,255.788 192.449,254.545 193.092 C 254.009 193.369,253.377 193.481,252.952 193.374 L 252.247 193.198 252.247 186.074 L 252.247 178.951 253.020 178.531 C 253.445 178.301,253.658 178.107,253.494 178.101 C 252.769 178.074,253.227 173.596,253.954 173.596 C 254.097 173.596,254.213 173.399,254.213 173.160 C 254.213 172.503,255.427 170.510,255.829 170.508 C 256.022 170.507,256.180 170.283,256.180 170.011 C 256.180 169.416,257.861 167.411,258.357 167.414 C 258.550 167.415,258.676 167.258,258.638 167.065 C 258.599 166.871,258.725 166.745,258.919 166.784 C 259.112 166.822,259.270 166.728,259.270 166.573 C 259.270 166.419,259.463 166.292,259.700 166.292 C 259.936 166.292,260.203 166.103,260.292 165.871 C 260.381 165.639,260.612 165.449,260.807 165.449 C 261.001 165.449,261.482 165.197,261.874 164.888 C 262.267 164.579,262.748 164.326,262.944 164.326 C 263.139 164.326,263.521 164.124,263.793 163.878 C 264.386 163.341,266.189 163.127,266.903 163.510 C 267.280 163.711,267.416 163.685,267.416 163.409 C 267.416 162.101,273.338 161.767,273.918 163.042 M270.720 164.805 C 271.069 164.873,271.575 164.870,271.843 164.800 C 272.112 164.729,271.826 164.674,271.208 164.678 C 270.590 164.681,270.370 164.738,270.720 164.805 M286.798 179.899 C 286.798 180.276,286.901 180.649,287.028 180.727 C 287.154 180.805,287.203 180.497,287.136 180.041 C 286.989 179.037,286.798 178.957,286.798 179.899 M303.230 225.843 L 303.230 244.803 270.804 244.875 C 245.048 244.932,238.331 244.874,238.154 244.594 C 237.807 244.048,237.864 207.935,238.213 207.284 C 238.499 206.749,239.096 206.741,270.867 206.811 L 303.230 206.882 303.230 225.843 M144.663 258.989 C 144.663 259.160,145.921 259.270,147.877 259.270 C 149.716 259.270,151.165 259.150,151.264 258.989 C 151.376 258.807,150.237 258.708,148.050 258.708 C 145.979 258.708,144.663 258.817,144.663 258.989 M158.641 259.749 C 158.990 259.816,159.496 259.814,159.765 259.744 C 160.033 259.673,159.747 259.618,159.129 259.621 C 158.511 259.625,158.292 259.682,158.641 259.749 " stroke="none" fill="#fcfcfc" fill-rule="evenodd"></path></g></svg>