<svg id="svg" version="1.1" xmlns="http://www.w3.org/2000/svg" xmlns:xlink="http://www.w3.org/1999/xlink" width="400" height="89.70976253298153" viewBox="0, 0, 400,89.70976253298153"><g id="svgg"><path id="path0" d="M29.306 9.750 C 29.260 9.796,27.842 9.852,26.155 9.875 L 23.087 9.917 22.918 11.083 C 22.767 12.133,22.710 12.256,22.348 12.307 C 22.127 12.338,22.026 12.413,22.123 12.473 C 22.325 12.599,22.376 13.104,22.351 14.713 C 22.333 15.838,22.332 15.842,21.815 15.945 C 21.397 16.029,21.349 16.079,21.565 16.200 C 22.073 16.484,21.944 18.966,21.410 19.169 C 21.055 19.304,21.015 19.382,21.160 19.654 C 21.771 20.796,21.207 23.246,20.417 22.885 C 20.325 22.843,20.381 22.916,20.542 23.048 C 21.181 23.572,20.911 26.081,20.186 26.359 C 19.784 26.512,19.773 26.542,20.042 26.739 C 20.816 27.308,20.304 29.925,19.461 29.705 C 19.105 29.612,19.099 29.622,19.368 29.892 C 19.929 30.453,19.955 32.886,19.406 33.342 C 19.231 33.487,19.167 33.936,19.167 35.009 C 19.167 36.287,19.127 36.490,18.861 36.575 C 18.583 36.663,18.562 36.832,18.632 38.411 L 18.710 40.150 18.259 40.263 C 17.939 40.343,17.860 40.427,17.988 40.554 C 18.374 40.940,18.205 43.310,17.761 43.754 C 17.538 43.978,17.425 44.204,17.511 44.257 C 18.083 44.610,17.588 47.167,16.947 47.167 C 16.647 47.167,16.644 47.190,16.897 47.577 C 17.466 48.444,17.168 50.833,16.492 50.833 C 16.164 50.833,16.160 50.851,16.424 51.115 C 16.794 51.484,16.698 53.835,16.295 54.290 C 16.109 54.501,16.029 54.976,16.013 55.982 C 15.988 57.590,15.960 57.667,15.395 57.667 C 15.010 57.667,14.998 57.688,15.244 57.935 C 15.736 58.426,15.538 61.202,15.000 61.351 C 14.771 61.415,14.680 61.474,14.798 61.483 C 14.960 61.496,15.001 61.858,14.965 62.944 L 14.917 64.388 14.333 64.598 C 14.012 64.713,13.832 64.814,13.932 64.821 C 14.502 64.860,14.747 67.563,14.227 68.082 C 14.010 68.299,13.961 68.656,13.987 69.837 C 14.005 70.652,13.943 71.461,13.850 71.636 C 13.684 71.945,13.789 71.954,17.329 71.949 L 20.978 71.944 20.948 71.513 C 20.922 71.159,20.997 71.074,21.375 71.031 C 21.840 70.977,22.028 70.473,21.667 70.250 C 21.179 69.949,21.518 66.833,22.038 66.833 C 22.307 66.833,22.336 66.787,22.181 66.600 C 21.788 66.127,22.020 63.259,22.456 63.197 C 22.816 63.146,22.908 62.686,22.615 62.393 C 22.552 62.330,22.500 61.587,22.500 60.743 C 22.500 59.155,22.627 58.829,23.207 58.923 C 23.472 58.966,23.475 58.938,23.249 58.615 C 22.766 57.925,22.904 55.364,23.430 55.232 C 23.782 55.143,23.838 55.059,23.737 54.770 C 23.301 53.521,23.543 51.000,24.100 51.000 C 24.313 51.000,24.332 50.949,24.184 50.771 C 23.874 50.398,24.148 50.002,24.726 49.985 C 25.014 49.977,27.036 49.962,29.219 49.950 C 33.866 49.927,33.656 49.849,33.276 51.449 C 33.214 51.710,33.254 51.789,33.415 51.727 C 33.796 51.581,34.000 52.249,34.000 53.642 C 34.000 54.554,33.934 54.997,33.792 55.050 C 33.675 55.093,33.784 55.207,34.042 55.309 C 34.629 55.543,34.769 58.493,34.208 58.820 C 33.967 58.961,34.010 58.991,34.458 58.995 L 35.000 59.000 35.000 60.633 C 35.000 61.681,34.928 62.338,34.800 62.467 C 34.644 62.622,34.697 62.667,35.037 62.667 C 35.451 62.667,35.479 62.722,35.589 63.743 C 35.694 64.727,35.644 65.068,35.249 66.042 C 35.156 66.273,35.217 66.333,35.544 66.333 C 36.159 66.333,36.462 68.681,35.917 69.226 C 35.526 69.617,35.606 70.000,36.080 70.000 C 36.553 70.000,36.745 70.477,36.638 71.389 L 36.573 71.945 40.370 71.964 L 44.167 71.983 44.167 71.570 C 44.167 71.342,44.279 71.113,44.417 71.060 C 44.815 70.907,44.706 70.705,44.270 70.789 C 44.051 70.831,43.827 70.792,43.772 70.702 C 43.587 70.402,43.619 68.315,43.812 68.122 C 44.108 67.826,44.034 67.667,43.601 67.667 C 43.382 67.667,43.167 67.573,43.124 67.458 C 42.984 67.085,43.031 65.334,43.184 65.239 C 43.433 65.086,43.351 64.837,43.086 64.939 C 42.607 65.122,42.204 62.536,42.667 62.250 C 42.946 62.077,42.853 61.833,42.508 61.833 C 42.097 61.833,41.918 61.011,42.050 59.733 C 42.130 58.958,42.098 58.808,41.821 58.660 C 41.456 58.465,41.350 56.591,41.670 55.993 C 41.814 55.724,41.773 55.658,41.404 55.565 C 40.972 55.457,40.967 55.440,41.026 54.144 C 41.070 53.181,41.031 52.833,40.879 52.833 C 40.582 52.833,40.462 52.186,40.527 50.927 C 40.573 50.023,40.535 49.813,40.310 49.742 C 39.857 49.599,39.623 47.591,39.991 47.009 C 40.100 46.836,40.042 46.718,39.780 46.587 C 39.393 46.393,39.254 44.792,39.566 44.125 C 39.673 43.897,39.627 43.833,39.354 43.833 C 38.912 43.833,38.785 43.353,38.860 41.969 C 38.905 41.136,38.856 40.856,38.625 40.625 C 38.299 40.299,38.210 38.452,38.498 38.000 C 38.618 37.810,38.568 37.728,38.287 37.659 C 37.895 37.562,37.730 35.492,38.059 34.805 C 38.161 34.591,38.102 34.514,37.804 34.472 C 37.443 34.420,37.413 34.331,37.367 33.171 C 37.335 32.378,37.229 31.828,37.076 31.658 C 36.757 31.307,36.593 29.705,36.816 29.125 C 36.958 28.756,36.945 28.667,36.752 28.667 C 36.215 28.667,35.917 26.611,36.339 25.822 C 36.483 25.553,36.456 25.500,36.176 25.500 C 35.750 25.500,35.602 24.951,35.702 23.743 C 35.763 23.003,35.719 22.782,35.464 22.551 C 35.104 22.225,35.048 19.848,35.399 19.817 C 35.501 19.808,35.396 19.748,35.167 19.685 C 34.689 19.553,34.437 17.227,34.846 16.734 C 35.005 16.543,34.961 16.500,34.612 16.500 C 34.132 16.500,33.914 15.130,34.231 14.107 C 34.375 13.641,34.272 13.463,33.752 13.281 C 33.662 13.250,33.573 12.667,33.555 11.987 C 33.537 11.307,33.517 10.689,33.511 10.615 C 33.505 10.541,33.413 10.534,33.307 10.600 C 33.175 10.681,33.144 10.606,33.208 10.359 C 33.286 10.063,33.230 10.000,32.890 10.000 C 32.663 10.000,32.324 9.918,32.136 9.817 C 31.887 9.683,31.824 9.683,31.906 9.817 C 32.020 10.001,31.806 10.051,31.000 10.030 C 29.897 10.001,29.362 9.923,29.437 9.801 C 29.528 9.653,29.437 9.618,29.306 9.750 M50.471 12.333 C 50.440 13.204,50.470 13.941,50.539 13.972 C 50.608 14.002,50.608 14.152,50.540 14.305 C 50.322 14.796,50.555 61.589,50.776 61.547 C 51.118 61.482,51.350 61.954,51.398 62.810 C 51.423 63.271,51.525 63.746,51.625 63.867 C 51.725 63.987,51.860 64.310,51.926 64.584 C 51.992 64.859,52.126 65.185,52.225 65.309 C 52.411 65.545,52.734 66.078,52.939 66.488 C 53.140 66.888,55.870 69.500,56.088 69.500 C 56.200 69.500,56.386 69.612,56.500 69.750 C 56.614 69.887,56.843 70.000,57.009 70.000 C 57.174 70.000,57.422 70.113,57.560 70.250 C 57.697 70.388,58.002 70.500,58.238 70.500 C 58.508 70.500,58.667 70.593,58.667 70.750 C 58.667 70.949,58.913 71.000,59.883 71.000 C 61.095 71.000,61.549 71.177,61.392 71.589 C 61.278 71.884,61.693 71.968,63.250 71.964 L 64.583 71.962 64.573 68.266 C 64.560 63.618,64.729 64.000,62.684 64.000 C 61.430 64.000,60.963 63.939,60.774 63.750 C 60.636 63.612,60.425 63.500,60.304 63.499 C 60.018 63.498,59.000 62.545,59.000 62.279 C 59.000 62.166,58.850 61.946,58.667 61.789 C 58.336 61.506,58.333 61.297,58.333 36.077 L 58.333 10.651 54.431 10.701 L 50.529 10.750 50.471 12.333 M197.465 10.842 C 197.292 10.944,197.221 11.115,197.285 11.282 C 197.359 11.474,197.328 11.516,197.178 11.424 C 197.017 11.324,197.006 11.367,197.130 11.605 C 197.234 11.805,197.295 22.398,197.300 41.083 C 197.303 57.125,197.312 70.419,197.320 70.625 L 197.333 71.000 201.167 71.000 L 205.000 71.000 205.000 55.287 C 205.000 41.335,205.029 39.533,205.259 39.204 L 205.519 38.833 211.343 38.833 L 217.167 38.833 217.167 35.333 L 217.167 31.833 211.277 31.833 L 205.387 31.833 205.193 31.409 C 204.948 30.871,204.920 18.899,205.163 18.261 L 205.325 17.833 211.246 17.833 L 217.167 17.833 217.167 14.255 L 217.167 10.676 207.458 10.675 C 201.262 10.675,197.647 10.735,197.465 10.842 M135.333 41.157 L 135.333 71.481 141.225 71.532 C 145.781 71.572,147.176 71.633,147.379 71.802 C 147.608 71.992,147.650 71.959,147.696 71.552 C 147.747 71.109,147.800 71.080,148.666 71.032 C 149.245 70.999,149.631 70.892,149.716 70.740 C 149.789 70.608,150.039 70.500,150.270 70.500 C 150.501 70.500,150.803 70.387,150.940 70.250 C 151.078 70.113,151.327 70.000,151.494 70.000 C 151.661 70.000,151.841 69.887,151.894 69.750 C 151.946 69.612,152.179 69.500,152.411 69.500 C 152.660 69.500,152.833 69.405,152.833 69.269 C 152.833 69.142,153.016 68.919,153.239 68.772 C 153.845 68.375,155.500 66.723,155.500 66.514 C 155.500 66.415,155.612 66.333,155.750 66.333 C 155.887 66.333,156.000 66.213,156.000 66.066 C 156.000 65.918,156.220 65.520,156.489 65.181 C 156.758 64.841,157.028 64.362,157.090 64.115 C 157.152 63.868,157.307 63.667,157.435 63.667 C 157.593 63.667,157.667 63.461,157.667 63.020 C 157.667 62.649,157.773 62.286,157.917 62.167 C 158.097 62.017,158.167 61.620,158.167 60.741 C 158.167 59.694,158.211 59.508,158.481 59.423 C 159.085 59.231,159.084 22.833,158.480 22.833 C 158.200 22.833,158.167 22.694,158.167 21.520 C 158.167 20.557,158.100 20.152,157.917 20.000 C 157.779 19.886,157.667 19.539,157.667 19.230 C 157.667 18.920,157.599 18.667,157.516 18.667 C 157.434 18.667,157.287 18.439,157.190 18.162 C 157.093 17.884,156.898 17.541,156.757 17.400 C 156.616 17.258,156.500 16.998,156.500 16.821 C 156.500 16.645,156.387 16.500,156.250 16.500 C 156.112 16.500,156.000 16.396,156.000 16.268 C 156.000 16.140,155.887 15.992,155.750 15.940 C 155.612 15.887,155.500 15.729,155.500 15.589 C 155.500 15.448,155.426 15.333,155.337 15.333 C 155.247 15.333,155.126 15.146,155.068 14.917 C 155.011 14.688,154.887 14.500,154.794 14.500 C 154.700 14.500,154.315 14.238,153.937 13.917 C 153.559 13.596,153.126 13.229,152.975 13.100 C 152.823 12.971,152.542 12.816,152.350 12.755 C 152.157 12.694,152.000 12.574,152.000 12.489 C 152.000 12.403,151.850 12.333,151.667 12.333 C 151.481 12.333,151.333 12.222,151.333 12.083 C 151.333 11.920,151.170 11.833,150.865 11.833 C 150.608 11.833,150.251 11.723,150.074 11.589 C 149.896 11.454,149.521 11.342,149.240 11.339 C 148.960 11.336,148.585 11.223,148.407 11.089 C 148.136 10.884,147.050 10.843,141.708 10.839 L 135.333 10.833 135.333 41.157 M226.110 15.391 C 226.125 16.964,226.144 18.719,226.152 19.292 L 226.167 20.333 229.833 20.333 L 233.500 20.333 233.523 19.125 C 233.535 18.460,233.555 16.698,233.566 15.208 L 233.586 12.499 232.834 12.578 C 231.181 12.753,226.634 12.827,226.367 12.685 C 226.105 12.544,226.085 12.747,226.110 15.391 M147.674 18.590 C 147.822 18.724,148.034 18.833,148.145 18.833 C 148.588 18.833,149.982 20.039,149.994 20.433 C 149.998 20.533,150.150 20.751,150.333 20.917 C 150.517 21.083,150.667 21.385,150.667 21.589 C 150.667 21.792,150.779 22.053,150.917 22.167 C 151.291 22.477,151.296 59.432,150.922 59.926 C 150.787 60.104,150.675 60.431,150.672 60.653 C 150.669 60.874,150.557 61.174,150.424 61.319 C 150.290 61.465,149.906 61.902,149.571 62.292 C 149.236 62.681,148.865 63.000,148.748 63.000 C 148.631 63.000,148.492 63.113,148.440 63.250 C 148.385 63.393,148.136 63.500,147.856 63.500 C 147.577 63.500,147.328 63.607,147.273 63.750 C 147.195 63.955,146.781 64.000,144.998 64.000 L 142.820 64.000 142.860 63.323 C 142.882 62.950,142.953 62.613,143.018 62.572 C 143.158 62.486,143.054 20.876,142.910 19.389 C 142.790 18.160,142.627 18.232,145.398 18.298 C 146.871 18.333,147.476 18.411,147.674 18.590 M29.174 20.104 C 29.359 20.667,29.321 21.578,29.068 22.583 C 28.990 22.896,29.030 23.000,29.226 23.000 C 29.681 23.000,29.879 23.644,29.783 24.818 C 29.682 26.062,29.550 26.499,29.274 26.503 C 29.167 26.504,29.190 26.572,29.325 26.658 C 29.458 26.742,29.631 26.772,29.708 26.725 C 30.298 26.360,30.659 29.189,30.083 29.667 C 29.762 29.933,29.759 30.231,30.079 30.108 C 30.796 29.833,31.232 32.744,30.571 33.405 C 30.333 33.643,30.340 33.667,30.649 33.667 C 31.331 33.667,31.688 36.455,31.083 37.060 C 30.744 37.399,30.762 37.431,31.292 37.423 C 31.787 37.416,32.072 38.964,31.815 40.266 C 31.737 40.661,31.786 40.828,32.023 40.976 C 32.931 41.543,32.291 42.544,31.167 42.315 C 30.846 42.249,29.814 42.193,28.873 42.190 C 27.932 42.186,27.096 42.143,27.016 42.093 C 26.935 42.043,26.602 42.113,26.277 42.249 C 25.357 42.634,25.166 42.466,25.169 41.274 C 25.172 39.791,25.283 39.484,25.783 39.575 C 26.182 39.647,26.186 39.638,25.930 39.247 C 25.336 38.341,25.651 35.667,26.351 35.667 C 26.663 35.667,26.669 35.645,26.423 35.399 C 25.907 34.883,26.131 32.097,26.693 32.032 C 27.119 31.983,27.127 31.963,26.903 31.532 C 26.436 30.638,26.621 28.333,27.159 28.333 C 27.318 28.333,27.591 28.170,27.766 27.971 C 27.940 27.772,28.005 27.655,27.909 27.710 C 27.179 28.132,26.849 25.135,27.548 24.437 C 27.890 24.096,27.913 23.941,27.864 22.285 C 27.828 21.051,27.869 20.500,27.998 20.500 C 28.100 20.500,28.262 20.275,28.358 20.000 C 28.593 19.326,28.931 19.370,29.174 20.104 M242.480 22.375 C 242.469 22.673,242.471 28.204,242.484 34.667 C 242.497 41.129,242.506 52.060,242.504 58.958 L 242.500 71.500 246.250 71.500 L 250.000 71.500 250.000 51.828 C 250.000 34.496,250.030 32.145,250.250 32.060 C 250.387 32.008,250.500 31.860,250.500 31.732 C 250.500 31.604,250.585 31.500,250.690 31.500 C 250.794 31.500,250.967 31.381,251.073 31.235 C 251.351 30.856,253.649 30.856,253.927 31.235 C 254.033 31.381,254.206 31.500,254.310 31.500 C 254.415 31.500,254.500 31.682,254.500 31.905 C 254.500 32.127,254.620 32.430,254.768 32.577 C 255.011 32.820,255.034 34.634,255.020 52.167 L 255.004 71.489 259.044 71.536 L 263.083 71.583 263.083 52.029 L 263.083 32.475 262.642 32.387 C 262.172 32.293,262.000 31.848,262.000 30.729 C 262.000 30.420,261.925 30.167,261.833 30.167 C 261.742 30.167,261.667 30.085,261.667 29.984 C 261.667 29.606,260.408 27.178,260.208 27.173 C 260.094 27.169,260.000 27.080,260.000 26.974 C 260.000 26.629,258.516 25.353,257.708 25.004 C 257.502 24.915,257.333 24.765,257.333 24.671 C 257.333 24.577,257.150 24.500,256.925 24.500 C 256.700 24.500,256.457 24.399,256.383 24.275 C 256.310 24.152,255.951 24.003,255.585 23.946 C 255.219 23.888,254.894 23.764,254.862 23.671 C 254.828 23.566,253.977 23.500,252.666 23.500 C 250.017 23.500,250.000 23.494,250.000 22.566 L 250.000 21.833 246.250 21.833 L 242.500 21.833 242.480 22.375 M300.084 23.042 C 300.309 25.494,300.269 28.092,300.000 28.423 C 299.862 28.592,299.825 28.686,299.917 28.631 C 300.028 28.565,300.068 35.760,300.036 50.120 L 299.989 71.708 300.370 71.606 C 300.579 71.550,302.381 71.504,304.375 71.502 L 308.000 71.500 308.000 52.101 C 308.000 35.012,308.030 32.691,308.250 32.606 C 308.387 32.554,308.500 32.348,308.500 32.149 C 308.500 31.398,309.251 30.977,310.602 30.972 L 311.829 30.967 312.498 31.685 L 313.167 32.402 313.167 51.951 L 313.167 71.500 316.917 71.500 L 320.667 71.500 320.669 51.792 C 320.670 40.952,320.714 31.925,320.766 31.731 C 320.836 31.470,320.771 31.356,320.513 31.289 C 320.226 31.213,320.167 31.068,320.167 30.432 C 320.167 29.863,320.103 29.667,319.917 29.667 C 319.750 29.667,319.667 29.500,319.667 29.167 C 319.667 28.892,319.590 28.667,319.496 28.667 C 319.403 28.667,319.234 28.460,319.121 28.208 C 319.009 27.956,318.710 27.546,318.458 27.297 C 318.206 27.048,318.000 26.807,318.000 26.761 C 318.000 26.607,316.824 25.500,316.661 25.500 C 316.572 25.500,316.500 25.387,316.500 25.250 C 316.500 25.094,316.342 25.000,316.078 25.000 C 315.846 25.000,315.613 24.887,315.560 24.750 C 315.508 24.613,315.332 24.500,315.169 24.500 C 315.007 24.500,314.781 24.387,314.667 24.250 C 314.553 24.113,314.260 24.000,314.017 24.000 C 313.773 24.000,313.419 23.891,313.230 23.759 C 312.978 23.582,312.307 23.510,310.734 23.491 C 308.189 23.459,308.000 23.391,308.000 22.494 L 308.000 21.833 303.986 21.833 L 299.973 21.833 300.084 23.042 M280.167 22.336 C 279.991 22.451,280.090 22.468,280.500 22.392 C 281.219 22.261,281.354 22.166,280.819 22.169 C 280.598 22.171,280.304 22.246,280.167 22.336 M82.970 22.874 C 82.910 23.298,82.435 23.449,81.062 23.480 C 80.505 23.493,80.131 23.592,79.988 23.764 C 79.853 23.927,79.594 24.003,79.313 23.961 C 78.977 23.912,78.835 23.974,78.777 24.197 C 78.726 24.392,78.543 24.500,78.266 24.500 C 78.028 24.500,77.833 24.577,77.833 24.672 C 77.833 24.766,77.711 24.891,77.562 24.948 C 77.203 25.086,75.167 27.097,75.167 27.314 C 75.167 27.407,75.072 27.543,74.957 27.617 C 74.841 27.690,74.531 28.183,74.268 28.712 C 74.005 29.241,73.725 29.714,73.645 29.763 C 73.565 29.813,73.500 30.156,73.500 30.525 C 73.500 31.056,73.430 31.216,73.169 31.285 C 72.986 31.332,72.875 31.433,72.922 31.508 C 72.968 31.583,73.004 38.842,73.002 47.637 C 72.998 61.743,73.027 63.641,73.249 63.726 C 73.414 63.790,73.500 64.048,73.500 64.477 C 73.500 64.905,73.587 65.164,73.750 65.227 C 73.887 65.280,74.000 65.470,74.000 65.650 C 74.000 65.829,74.127 66.103,74.282 66.258 C 74.436 66.413,74.692 66.779,74.849 67.073 C 75.233 67.789,76.344 68.928,76.799 69.072 C 77.001 69.137,77.167 69.259,77.167 69.345 C 77.167 69.430,77.279 69.500,77.417 69.500 C 77.554 69.500,77.667 69.568,77.667 69.652 C 77.667 69.842,79.005 70.500,79.391 70.500 C 79.548 70.500,79.720 70.612,79.773 70.750 C 79.840 70.924,80.112 71.000,80.671 71.000 C 81.726 71.000,82.000 71.122,82.000 71.590 C 82.000 71.976,82.009 71.978,83.984 71.947 C 85.075 71.930,85.933 71.860,85.890 71.790 C 85.601 71.322,86.047 70.985,86.889 71.033 L 87.750 71.083 87.795 75.000 C 87.830 78.106,87.794 78.951,87.618 79.083 C 87.496 79.175,87.347 79.381,87.287 79.542 C 87.226 79.702,87.062 79.833,86.922 79.833 C 86.782 79.833,86.667 79.946,86.667 80.083 C 86.667 80.368,86.646 80.369,83.597 80.334 C 80.998 80.304,79.722 79.512,80.698 78.535 C 81.331 77.902,81.114 77.864,77.025 77.891 L 73.083 77.917 73.052 79.218 C 73.028 80.217,73.076 80.540,73.260 80.610 C 73.411 80.668,73.500 80.940,73.500 81.343 C 73.500 81.766,73.594 82.036,73.776 82.138 C 73.928 82.223,74.064 82.452,74.079 82.647 C 74.093 82.842,74.218 83.095,74.357 83.209 C 74.495 83.323,74.866 83.752,75.179 84.163 C 75.873 85.070,76.676 85.822,76.958 85.828 C 77.073 85.831,77.167 85.910,77.167 86.004 C 77.167 86.098,77.335 86.248,77.542 86.337 C 77.748 86.426,78.029 86.562,78.167 86.638 C 79.022 87.114,79.575 87.333,79.918 87.333 C 80.149 87.333,80.467 87.531,80.696 87.816 L 81.083 88.299 84.192 88.210 C 87.296 88.120,87.301 88.120,87.488 87.710 C 87.649 87.356,87.766 87.308,88.328 87.361 C 88.845 87.411,88.997 87.362,89.058 87.129 C 89.106 86.946,89.293 86.833,89.550 86.833 C 89.778 86.833,90.008 86.721,90.060 86.583 C 90.113 86.446,90.301 86.333,90.477 86.333 C 90.653 86.333,90.841 86.221,90.894 86.083 C 90.946 85.946,91.142 85.833,91.328 85.833 C 91.514 85.833,91.667 85.749,91.667 85.647 C 91.667 85.544,92.004 85.137,92.417 84.741 C 92.829 84.346,93.167 83.917,93.167 83.787 C 93.167 83.658,93.317 83.416,93.500 83.250 C 93.683 83.084,93.833 82.857,93.833 82.745 C 93.833 82.633,93.946 82.447,94.083 82.333 C 94.221 82.219,94.333 81.945,94.333 81.724 C 94.333 81.504,94.446 81.280,94.583 81.227 C 94.774 81.154,94.833 80.841,94.833 79.905 C 94.833 78.672,94.857 78.620,95.545 78.308 C 95.696 78.240,95.734 32.743,95.583 32.499 C 95.527 32.408,95.335 32.333,95.157 32.333 C 94.873 32.333,94.833 32.212,94.833 31.351 C 94.833 30.632,94.766 30.343,94.583 30.273 C 94.437 30.217,94.333 29.967,94.333 29.672 C 94.333 29.394,94.254 29.167,94.158 29.167 C 94.062 29.167,93.904 28.942,93.808 28.667 C 93.712 28.392,93.566 28.167,93.484 28.167 C 93.401 28.167,93.333 28.089,93.333 27.993 C 93.333 27.773,92.651 26.793,92.375 26.617 C 92.260 26.543,92.167 26.375,92.167 26.242 C 92.167 26.109,92.054 26.000,91.917 26.000 C 91.779 26.000,91.667 25.887,91.667 25.750 C 91.667 25.613,91.526 25.500,91.354 25.500 C 91.182 25.500,90.947 25.387,90.833 25.250 C 90.719 25.113,90.531 25.000,90.414 25.000 C 90.298 25.000,90.159 24.887,90.106 24.750 C 90.054 24.613,89.867 24.500,89.692 24.500 C 89.517 24.500,89.281 24.387,89.167 24.250 C 89.053 24.113,88.784 24.000,88.569 24.000 C 88.150 24.000,87.833 23.574,87.950 23.167 C 88.000 22.989,87.951 23.003,87.778 23.216 C 87.563 23.481,87.332 23.505,85.755 23.426 C 83.773 23.327,83.609 23.277,83.754 22.819 C 83.836 22.563,83.774 22.500,83.439 22.500 C 83.135 22.500,83.009 22.600,82.970 22.874 M337.945 22.806 C 338.047 23.197,337.514 23.500,336.727 23.500 C 336.497 23.500,336.197 23.613,336.060 23.750 C 335.922 23.887,335.635 24.000,335.423 24.000 C 335.210 24.000,334.992 24.113,334.940 24.250 C 334.887 24.387,334.691 24.500,334.505 24.500 C 334.319 24.500,334.167 24.577,334.167 24.672 C 334.167 24.766,334.035 24.891,333.875 24.950 C 333.522 25.078,331.667 26.906,331.667 27.125 C 331.667 27.211,331.517 27.417,331.333 27.583 C 331.150 27.749,331.000 27.977,331.000 28.089 C 331.000 28.201,330.887 28.386,330.750 28.500 C 330.612 28.614,330.500 28.888,330.500 29.109 C 330.500 29.330,330.387 29.554,330.250 29.606 C 330.078 29.672,330.000 29.941,330.000 30.463 C 330.000 30.908,329.895 31.339,329.748 31.502 C 329.331 31.963,329.291 63.617,329.708 63.726 C 329.927 63.783,330.000 63.975,330.000 64.490 C 330.000 64.947,330.084 65.209,330.250 65.273 C 330.387 65.326,330.500 65.545,330.500 65.760 C 330.500 65.974,330.600 66.210,330.721 66.283 C 330.843 66.357,331.119 66.735,331.335 67.125 C 331.551 67.515,331.827 67.833,331.947 67.833 C 332.068 67.833,332.167 67.938,332.167 68.066 C 332.167 68.193,332.279 68.341,332.417 68.394 C 332.554 68.446,332.667 68.596,332.667 68.727 C 332.667 68.857,332.841 69.008,333.055 69.061 C 333.268 69.115,333.636 69.338,333.873 69.557 C 334.110 69.777,334.498 70.005,334.735 70.065 C 334.972 70.124,335.167 70.247,335.167 70.337 C 335.167 70.426,335.345 70.500,335.563 70.500 C 335.781 70.500,336.053 70.612,336.167 70.750 C 336.297 70.907,336.664 71.000,337.155 71.000 C 338.101 71.000,338.590 71.304,338.458 71.809 C 338.403 72.018,338.431 72.126,338.525 72.068 C 338.614 72.013,339.538 71.962,340.578 71.955 C 342.333 71.943,342.465 71.920,342.410 71.631 C 342.335 71.242,342.909 71.000,343.907 71.000 C 344.343 71.000,344.708 70.901,344.833 70.750 C 344.947 70.612,345.249 70.500,345.503 70.500 C 345.759 70.500,346.007 70.389,346.060 70.250 C 346.113 70.112,346.263 70.000,346.394 70.000 C 346.524 70.000,346.674 69.887,346.727 69.750 C 346.780 69.612,346.947 69.500,347.100 69.500 C 347.382 69.500,349.167 67.760,349.167 67.485 C 349.167 67.402,349.279 67.333,349.417 67.333 C 349.554 67.333,349.667 67.189,349.667 67.012 C 349.667 66.835,349.779 66.578,349.917 66.440 C 350.054 66.303,350.167 66.119,350.167 66.032 C 350.167 65.945,350.271 65.787,350.399 65.681 C 350.527 65.575,350.682 65.220,350.744 64.892 C 350.810 64.540,350.970 64.266,351.136 64.223 C 351.393 64.156,351.413 63.690,351.371 58.672 L 351.325 53.194 350.704 53.107 C 350.363 53.059,348.785 53.034,347.197 53.051 L 344.311 53.083 344.327 57.299 C 344.340 60.640,344.295 61.608,344.107 61.965 C 343.977 62.214,343.790 62.621,343.691 62.870 C 343.586 63.136,343.336 63.368,343.089 63.430 C 342.857 63.488,342.667 63.630,342.667 63.745 C 342.667 64.017,341.024 64.168,339.399 64.045 C 338.519 63.979,338.167 63.887,338.167 63.726 C 338.167 63.602,338.071 63.500,337.954 63.500 C 337.165 63.500,337.187 63.925,337.110 47.299 L 337.037 31.750 337.727 31.083 L 338.417 30.417 340.637 30.417 C 342.578 30.417,342.877 30.453,343.020 30.708 C 343.110 30.869,343.273 31.001,343.383 31.001 C 344.143 31.005,344.333 31.948,344.333 35.719 L 344.333 39.333 348.083 39.333 L 351.833 39.333 351.849 38.625 C 351.947 34.123,351.871 31.951,351.608 31.804 C 351.408 31.692,351.333 31.415,351.333 30.779 C 351.333 30.114,351.254 29.840,351.000 29.622 C 350.817 29.465,350.667 29.148,350.667 28.918 C 350.667 28.688,350.593 28.500,350.503 28.500 C 350.413 28.500,350.294 28.318,350.238 28.095 C 350.182 27.873,350.031 27.650,349.902 27.601 C 349.772 27.551,349.667 27.396,349.667 27.255 C 349.667 27.115,349.589 27.000,349.495 27.000 C 349.400 27.000,349.278 26.884,349.224 26.742 C 349.095 26.407,348.188 25.500,347.982 25.500 C 347.894 25.500,347.780 25.387,347.727 25.250 C 347.674 25.113,347.527 25.000,347.399 25.000 C 347.271 25.000,347.167 24.932,347.167 24.848 C 347.167 24.694,346.061 24.122,345.375 23.921 C 345.169 23.860,345.000 23.741,345.000 23.655 C 345.000 23.570,344.817 23.500,344.594 23.500 C 343.905 23.500,343.333 23.201,343.333 22.842 C 343.333 22.553,343.276 22.530,342.906 22.671 C 342.292 22.904,338.281 22.881,338.043 22.643 C 337.900 22.500,337.875 22.540,337.945 22.806 M374.411 22.772 C 374.831 23.343,374.160 23.500,371.286 23.505 C 369.027 23.509,368.348 23.563,368.093 23.755 C 367.915 23.890,367.568 24.000,367.322 24.000 C 367.076 24.000,366.781 24.113,366.667 24.250 C 366.553 24.387,366.281 24.500,366.063 24.500 C 365.845 24.500,365.667 24.574,365.667 24.663 C 365.667 24.753,365.485 24.873,365.262 24.929 C 365.040 24.984,364.817 25.136,364.767 25.265 C 364.718 25.394,364.573 25.500,364.447 25.500 C 364.249 25.500,363.825 25.927,362.420 27.542 C 362.281 27.702,362.167 27.908,362.167 28.000 C 362.167 28.092,362.054 28.167,361.917 28.167 C 361.750 28.167,361.667 28.333,361.667 28.667 C 361.667 29.000,361.583 29.167,361.417 29.167 C 361.243 29.167,361.167 29.341,361.167 29.738 C 361.167 30.052,361.054 30.422,360.917 30.560 C 360.698 30.778,360.667 32.827,360.667 46.968 C 360.667 61.127,360.698 63.152,360.917 63.333 C 361.054 63.447,361.167 63.786,361.167 64.086 C 361.167 64.417,361.265 64.669,361.417 64.727 C 361.554 64.780,361.667 65.013,361.667 65.245 C 361.667 65.477,361.734 65.667,361.817 65.667 C 361.899 65.667,362.130 65.980,362.329 66.363 C 362.529 66.746,363.062 67.406,363.513 67.830 C 363.964 68.254,364.333 68.690,364.333 68.800 C 364.333 68.910,364.474 69.000,364.646 69.000 C 364.818 69.000,365.053 69.113,365.167 69.250 C 365.281 69.387,365.469 69.500,365.586 69.500 C 365.702 69.500,365.841 69.612,365.894 69.750 C 365.946 69.887,366.182 70.000,366.417 70.000 C 366.652 70.000,366.887 70.112,366.940 70.250 C 366.998 70.402,367.250 70.500,367.581 70.500 C 367.881 70.500,368.219 70.612,368.333 70.750 C 368.503 70.954,369.054 71.000,371.333 71.000 C 373.612 71.000,374.164 70.954,374.333 70.750 C 374.447 70.612,374.759 70.500,375.026 70.500 C 375.303 70.500,375.552 70.393,375.606 70.250 C 375.661 70.107,375.910 70.000,376.184 70.000 C 376.502 70.000,376.667 69.915,376.667 69.750 C 376.667 69.612,376.745 69.500,376.840 69.500 C 377.130 69.500,378.031 68.802,379.046 67.792 C 379.575 67.265,380.081 66.833,380.171 66.833 C 380.260 66.833,380.333 66.608,380.333 66.333 C 380.333 66.000,380.417 65.833,380.583 65.833 C 380.721 65.833,380.833 65.689,380.833 65.512 C 380.833 65.335,380.946 65.078,381.083 64.940 C 381.221 64.803,381.333 64.491,381.333 64.246 C 381.333 63.963,381.439 63.774,381.625 63.726 C 381.868 63.662,381.917 63.454,381.917 62.478 C 381.917 61.585,381.982 61.259,382.190 61.107 C 382.414 60.943,382.476 60.482,382.539 58.544 C 382.585 57.082,382.689 56.090,382.811 55.944 C 383.116 55.577,382.499 55.521,378.500 55.554 L 374.917 55.583 374.875 58.660 C 374.841 61.193,374.790 61.761,374.584 61.876 C 374.446 61.954,374.333 62.159,374.333 62.333 C 374.333 62.774,373.619 63.500,373.184 63.500 C 372.985 63.500,372.780 63.612,372.727 63.750 C 372.653 63.943,372.331 64.000,371.310 64.000 C 370.290 64.000,369.968 63.943,369.894 63.750 C 369.841 63.612,369.670 63.500,369.515 63.500 C 369.161 63.500,368.167 62.493,368.167 62.135 C 368.167 61.989,368.054 61.826,367.917 61.773 C 367.699 61.690,367.667 60.578,367.667 53.172 L 367.667 44.667 368.657 44.667 C 369.201 44.667,369.686 44.730,369.734 44.808 C 370.023 45.275,376.497 44.965,376.624 44.478 C 376.700 44.190,376.912 44.167,379.492 44.167 L 382.278 44.167 382.430 43.292 C 382.544 42.644,382.616 33.662,382.515 32.792 C 382.507 32.723,382.396 32.667,382.269 32.667 C 381.978 32.667,381.839 32.151,381.836 31.059 C 381.834 30.453,381.760 30.174,381.583 30.106 C 381.446 30.054,381.333 29.830,381.333 29.609 C 381.333 29.388,381.221 29.114,381.083 29.000 C 380.946 28.886,380.833 28.652,380.833 28.480 C 380.833 28.307,380.766 28.167,380.683 28.167 C 380.558 28.167,379.912 27.261,379.693 26.779 C 379.551 26.466,378.472 25.500,378.265 25.500 C 378.142 25.500,377.947 25.387,377.833 25.250 C 377.719 25.113,377.523 25.000,377.396 25.000 C 377.270 25.000,377.167 24.887,377.167 24.750 C 377.167 24.585,377.002 24.500,376.684 24.500 C 376.419 24.500,376.161 24.392,376.110 24.260 C 376.055 24.115,375.733 24.000,375.301 23.968 C 374.617 23.919,374.583 23.892,374.573 23.379 C 374.568 23.083,374.512 22.802,374.448 22.754 C 374.385 22.706,374.368 22.714,374.411 22.772 M278.338 23.357 C 278.333 23.785,278.072 24.000,277.558 24.000 C 277.421 24.000,277.197 24.113,277.060 24.250 C 276.922 24.387,276.673 24.500,276.506 24.500 C 276.339 24.500,276.159 24.613,276.106 24.750 C 276.054 24.887,275.896 25.000,275.755 25.000 C 275.615 25.000,275.500 25.070,275.500 25.155 C 275.500 25.241,275.344 25.360,275.154 25.421 C 274.508 25.626,273.473 26.771,273.011 27.792 C 272.918 27.998,272.765 28.167,272.671 28.167 C 272.577 28.167,272.500 28.307,272.500 28.480 C 272.500 28.652,272.392 28.882,272.260 28.992 C 272.127 29.102,271.996 29.427,271.968 29.714 C 271.929 30.108,271.814 30.265,271.500 30.352 C 271.271 30.415,271.177 30.474,271.292 30.483 C 271.453 30.496,271.500 31.503,271.500 34.917 L 271.500 39.333 275.000 39.333 L 278.500 39.333 278.500 35.745 C 278.500 32.709,278.538 32.141,278.750 32.060 C 278.887 32.008,279.002 31.841,279.004 31.691 C 279.021 30.645,281.920 29.919,282.936 30.706 C 284.749 32.112,284.687 31.846,284.630 37.917 L 284.583 42.917 281.917 42.917 C 280.450 42.917,279.044 42.852,278.792 42.774 C 278.392 42.649,278.333 42.675,278.333 42.979 C 278.333 43.361,277.738 43.601,277.162 43.450 C 276.943 43.393,276.771 43.472,276.659 43.682 C 276.562 43.863,276.311 44.000,276.077 44.000 C 275.823 44.000,275.667 44.095,275.667 44.250 C 275.667 44.387,275.562 44.500,275.434 44.500 C 275.307 44.500,275.159 44.612,275.106 44.750 C 275.054 44.887,274.910 45.000,274.788 45.000 C 274.558 45.000,273.500 46.004,273.500 46.222 C 273.500 46.289,273.275 46.565,273.000 46.833 C 272.725 47.102,272.500 47.477,272.500 47.666 C 272.500 47.856,272.387 48.054,272.250 48.106 C 272.097 48.165,272.000 48.418,272.000 48.756 C 272.000 49.060,271.889 49.420,271.754 49.556 C 271.431 49.878,271.288 63.167,271.607 63.167 C 271.856 63.167,272.000 63.561,272.000 64.246 C 272.000 64.583,272.097 64.835,272.250 64.894 C 272.387 64.946,272.500 65.179,272.500 65.411 C 272.500 65.675,272.594 65.833,272.750 65.833 C 272.917 65.833,273.000 66.000,273.000 66.333 C 273.000 66.667,273.083 66.833,273.250 66.833 C 273.387 66.833,273.500 66.946,273.500 67.083 C 273.500 67.221,273.612 67.333,273.750 67.333 C 273.887 67.333,274.000 67.414,274.000 67.513 C 274.000 67.714,275.327 69.000,275.534 69.000 C 275.607 69.000,275.667 69.112,275.667 69.250 C 275.667 69.390,275.815 69.500,276.005 69.500 C 276.191 69.500,276.387 69.613,276.440 69.750 C 276.492 69.888,276.663 70.000,276.819 70.000 C 276.975 70.000,277.249 70.110,277.426 70.245 C 277.604 70.379,277.910 70.492,278.105 70.495 C 278.300 70.498,278.550 70.609,278.661 70.743 C 278.795 70.904,279.263 71.002,280.056 71.035 C 281.100 71.077,281.270 71.129,281.410 71.448 C 281.622 71.931,282.167 72.081,282.167 71.657 C 282.167 70.904,284.531 70.714,284.637 71.458 C 284.666 71.665,284.741 71.838,284.803 71.843 C 284.866 71.848,286.435 71.890,288.292 71.936 L 291.667 72.021 291.667 51.422 C 291.667 33.265,291.637 30.811,291.417 30.727 C 291.247 30.662,291.167 30.396,291.167 29.899 C 291.167 29.359,291.101 29.167,290.917 29.167 C 290.750 29.167,290.667 29.000,290.667 28.667 C 290.667 28.346,290.582 28.167,290.430 28.167 C 290.300 28.167,290.023 27.885,289.814 27.542 C 289.606 27.198,289.337 26.857,289.217 26.783 C 289.098 26.710,289.000 26.512,289.000 26.343 C 289.000 26.155,288.839 25.996,288.583 25.932 C 288.354 25.874,288.167 25.753,288.167 25.663 C 288.167 25.574,288.052 25.500,287.911 25.500 C 287.771 25.500,287.613 25.387,287.560 25.250 C 287.508 25.113,287.358 25.000,287.227 25.000 C 287.096 25.000,286.946 24.887,286.894 24.750 C 286.841 24.613,286.626 24.500,286.417 24.500 C 286.207 24.500,285.992 24.387,285.940 24.250 C 285.887 24.113,285.671 24.000,285.459 24.000 C 285.247 24.000,284.904 23.881,284.697 23.736 C 284.390 23.521,283.787 23.469,281.485 23.457 C 279.089 23.446,278.628 23.403,278.497 23.180 C 278.375 22.971,278.342 23.008,278.338 23.357 M112.405 23.725 C 112.218 23.944,111.979 24.015,111.581 23.968 C 111.149 23.918,111.003 23.971,110.943 24.201 C 110.894 24.387,110.708 24.500,110.450 24.500 C 110.222 24.500,109.992 24.613,109.940 24.750 C 109.887 24.887,109.652 25.000,109.417 25.000 C 109.182 25.000,108.946 25.113,108.894 25.250 C 108.841 25.387,108.693 25.500,108.566 25.500 C 108.438 25.500,108.333 25.613,108.333 25.750 C 108.333 25.887,108.255 26.000,108.159 26.000 C 108.004 26.000,107.422 26.584,106.098 28.066 C 105.861 28.331,105.667 28.680,105.667 28.840 C 105.667 29.000,105.554 29.174,105.417 29.227 C 105.279 29.280,105.167 29.466,105.167 29.641 C 105.167 29.816,105.054 30.053,104.917 30.167 C 104.779 30.281,104.667 30.581,104.667 30.833 C 104.667 31.086,104.554 31.386,104.417 31.500 C 104.038 31.815,104.038 63.019,104.417 63.333 C 104.554 63.447,104.667 63.786,104.667 64.086 C 104.667 64.417,104.765 64.669,104.917 64.727 C 105.054 64.780,105.167 65.015,105.167 65.250 C 105.167 65.485,105.275 65.719,105.407 65.769 C 105.540 65.820,105.791 66.137,105.967 66.473 C 106.432 67.364,108.560 69.500,108.983 69.500 C 109.176 69.500,109.333 69.567,109.333 69.650 C 109.333 69.831,110.407 70.403,111.042 70.560 C 111.294 70.622,111.500 70.747,111.500 70.837 C 111.500 70.926,111.841 71.000,112.258 71.000 C 112.838 71.000,113.110 71.095,113.421 71.406 C 113.644 71.629,113.870 71.742,113.923 71.656 C 114.113 71.350,116.631 71.468,116.820 71.792 C 116.972 72.053,116.990 72.045,116.995 71.714 C 117.002 71.233,117.463 71.000,118.406 71.000 C 118.971 71.000,119.167 70.936,119.167 70.750 C 119.167 70.585,119.331 70.500,119.649 70.500 C 119.924 70.500,120.172 70.393,120.227 70.250 C 120.280 70.113,120.473 70.000,120.656 70.000 C 120.839 70.000,121.456 69.550,122.027 69.000 C 122.598 68.450,123.125 68.000,123.199 68.000 C 123.273 68.000,123.333 67.922,123.333 67.828 C 123.333 67.733,123.558 67.435,123.833 67.167 C 124.108 66.898,124.333 66.610,124.333 66.526 C 124.333 66.442,124.446 66.281,124.583 66.167 C 124.721 66.053,124.833 65.811,124.833 65.631 C 124.833 65.443,124.975 65.265,125.165 65.215 C 125.414 65.150,125.473 65.034,125.402 64.749 C 125.349 64.540,125.389 64.319,125.489 64.257 C 125.590 64.194,125.634 64.082,125.587 64.006 C 125.540 63.930,125.614 63.825,125.751 63.773 C 125.922 63.707,126.000 63.436,126.000 62.906 C 126.000 62.312,126.067 62.118,126.292 62.059 C 126.709 61.950,126.670 33.025,126.252 32.791 C 126.077 32.693,126.000 32.383,126.000 31.782 C 126.000 31.094,125.931 30.870,125.667 30.705 C 125.478 30.588,125.333 30.317,125.333 30.082 C 125.333 29.854,125.264 29.667,125.180 29.667 C 125.096 29.667,124.977 29.442,124.917 29.167 C 124.856 28.892,124.736 28.667,124.649 28.667 C 124.563 28.667,124.420 28.479,124.333 28.250 C 124.246 28.021,124.098 27.833,124.004 27.833 C 123.910 27.833,123.833 27.724,123.833 27.590 C 123.833 27.260,122.672 26.071,122.208 25.927 C 122.002 25.863,121.833 25.741,121.833 25.655 C 121.833 25.570,121.718 25.500,121.578 25.500 C 121.438 25.500,121.280 25.387,121.227 25.250 C 121.174 25.113,121.032 25.000,120.911 25.000 C 120.790 25.000,120.591 24.900,120.469 24.778 C 120.347 24.656,120.041 24.505,119.790 24.442 C 119.539 24.379,119.333 24.253,119.333 24.163 C 119.333 24.074,119.088 24.000,118.787 24.000 C 118.487 24.000,118.088 23.893,117.902 23.763 C 117.322 23.356,112.747 23.325,112.405 23.725 M174.989 23.708 C 174.792 23.869,174.422 24.000,174.169 24.000 C 173.915 24.000,173.614 24.113,173.500 24.250 C 173.386 24.387,173.161 24.500,173.000 24.500 C 172.839 24.500,172.614 24.613,172.500 24.750 C 172.386 24.887,172.189 25.000,172.063 25.000 C 171.937 25.000,171.696 25.131,171.529 25.292 C 171.361 25.452,171.042 25.738,170.820 25.927 C 170.233 26.426,169.000 27.842,169.000 28.017 C 169.000 28.099,168.887 28.167,168.750 28.167 C 168.583 28.167,168.500 28.333,168.500 28.667 C 168.500 29.000,168.417 29.167,168.250 29.167 C 168.077 29.167,168.000 29.340,168.000 29.730 C 168.000 30.039,167.887 30.386,167.750 30.500 C 167.531 30.682,167.500 32.721,167.500 47.000 C 167.500 61.279,167.531 63.318,167.750 63.500 C 167.887 63.614,168.000 63.915,168.000 64.169 C 168.000 64.426,168.111 64.674,168.250 64.727 C 168.387 64.780,168.500 65.009,168.500 65.236 C 168.500 65.464,168.594 65.710,168.708 65.783 C 168.984 65.960,169.667 66.940,169.667 67.160 C 169.667 67.255,169.779 67.333,169.917 67.333 C 170.054 67.333,170.167 67.406,170.167 67.494 C 170.167 67.827,171.866 69.296,172.542 69.548 C 172.702 69.607,172.833 69.734,172.833 69.828 C 172.833 69.923,173.023 70.000,173.255 70.000 C 173.487 70.000,173.720 70.112,173.773 70.250 C 173.826 70.389,174.074 70.500,174.331 70.500 C 174.585 70.500,174.886 70.612,175.000 70.750 C 175.169 70.954,175.721 71.000,178.000 71.000 C 180.279 71.000,180.831 70.954,181.000 70.750 C 181.114 70.612,181.452 70.500,181.750 70.500 C 182.048 70.500,182.386 70.387,182.500 70.250 C 182.614 70.112,182.886 70.000,183.104 70.000 C 183.322 70.000,183.501 69.906,183.502 69.792 C 183.503 69.677,183.810 69.437,184.185 69.257 C 184.559 69.078,185.177 68.572,185.558 68.134 C 185.938 67.696,186.344 67.336,186.458 67.335 C 186.573 67.334,186.667 67.181,186.667 66.995 C 186.667 66.809,186.779 66.613,186.917 66.560 C 187.054 66.508,187.167 66.358,187.167 66.227 C 187.167 66.096,187.279 65.946,187.417 65.894 C 187.554 65.841,187.667 65.627,187.667 65.419 C 187.667 65.211,187.779 64.947,187.917 64.833 C 188.054 64.719,188.167 64.415,188.167 64.158 C 188.167 63.901,188.275 63.582,188.407 63.450 C 188.560 63.297,188.657 62.821,188.673 62.146 C 188.706 60.780,188.788 60.500,189.156 60.500 C 189.527 60.500,189.584 60.095,189.584 57.502 L 189.583 55.586 185.708 55.527 L 181.833 55.468 181.812 56.359 C 181.800 56.849,181.781 58.249,181.770 59.470 C 181.753 61.398,181.712 61.711,181.458 61.853 C 181.298 61.943,181.167 62.149,181.167 62.310 C 181.167 62.682,180.326 63.500,179.944 63.500 C 179.786 63.500,179.613 63.612,179.560 63.750 C 179.420 64.117,176.667 64.117,176.667 63.750 C 176.667 63.605,176.516 63.500,176.307 63.500 C 175.893 63.500,175.000 62.580,175.000 62.154 C 175.000 61.997,174.887 61.826,174.750 61.773 C 174.532 61.690,174.500 60.577,174.500 53.158 L 174.500 44.638 175.625 44.739 C 179.476 45.085,183.500 44.917,183.500 44.411 C 183.500 44.205,183.983 44.167,186.556 44.167 L 189.611 44.167 189.563 43.042 C 189.537 42.423,189.514 40.023,189.512 37.708 C 189.509 35.157,189.445 33.500,189.349 33.500 C 188.877 33.500,188.696 32.975,188.723 31.683 C 188.745 30.586,188.700 30.330,188.458 30.179 C 188.298 30.079,188.167 29.819,188.167 29.602 C 188.167 29.385,188.054 29.114,187.917 29.000 C 187.779 28.886,187.667 28.652,187.667 28.480 C 187.667 28.307,187.589 28.167,187.495 28.167 C 187.400 28.167,187.273 28.035,187.212 27.875 C 187.151 27.715,186.891 27.358,186.634 27.083 C 186.376 26.808,186.126 26.460,186.077 26.310 C 186.029 26.159,185.860 25.993,185.703 25.940 C 185.292 25.801,184.772 25.451,184.617 25.208 C 184.543 25.094,184.375 25.000,184.242 25.000 C 184.109 25.000,184.000 24.887,184.000 24.750 C 184.000 24.595,183.843 24.500,183.585 24.500 C 183.356 24.500,183.086 24.366,182.984 24.202 C 182.848 23.985,182.644 23.922,182.231 23.971 C 181.897 24.010,181.503 23.931,181.272 23.780 C 180.643 23.367,175.482 23.309,174.989 23.708 M226.157 23.792 C 226.152 23.952,226.131 26.858,226.110 30.250 C 226.090 33.642,226.006 36.525,225.923 36.658 C 225.723 36.979,225.803 55.279,226.010 56.617 C 226.099 57.186,226.165 60.186,226.158 63.284 C 226.151 66.382,226.150 69.385,226.156 69.958 L 226.167 71.000 229.833 71.000 L 233.500 71.000 233.499 70.458 C 233.499 70.160,233.501 59.642,233.504 47.083 C 233.507 34.525,233.507 24.081,233.504 23.875 L 233.500 23.500 229.833 23.500 C 226.456 23.500,226.166 23.523,226.157 23.792 M206.058 26.833 C 206.058 27.613,206.087 27.931,206.122 27.542 C 206.157 27.152,206.157 26.515,206.122 26.125 C 206.087 25.735,206.058 26.054,206.058 26.833 M299.709 27.750 C 299.711 28.117,299.745 28.247,299.785 28.040 C 299.824 27.832,299.823 27.532,299.781 27.373 C 299.739 27.214,299.707 27.383,299.709 27.750 M206.048 29.583 C 206.049 30.042,206.081 30.209,206.120 29.956 C 206.158 29.703,206.157 29.328,206.117 29.123 C 206.078 28.918,206.046 29.125,206.048 29.583 M3.379 30.333 C 3.379 30.746,3.411 30.915,3.451 30.708 C 3.491 30.502,3.491 30.165,3.451 29.958 C 3.411 29.752,3.379 29.921,3.379 30.333 M85.667 30.750 C 85.781 30.887,86.015 31.000,86.187 31.000 C 86.565 31.000,87.145 31.552,87.542 32.290 C 87.957 33.062,87.997 61.813,87.583 62.226 C 87.446 62.364,87.333 62.569,87.333 62.683 C 87.333 62.999,86.818 63.500,86.492 63.500 C 86.333 63.500,86.159 63.612,86.106 63.750 C 85.965 64.120,81.869 64.120,81.727 63.750 C 81.674 63.612,81.560 63.500,81.474 63.500 C 81.153 63.500,80.500 62.603,80.500 62.163 C 80.500 61.912,80.385 61.612,80.245 61.496 C 80.037 61.324,79.999 60.924,80.037 59.352 L 80.083 57.419 80.536 57.335 L 80.988 57.250 80.959 47.000 C 80.936 38.889,80.885 36.704,80.715 36.530 C 79.821 35.614,80.704 31.000,81.774 31.000 C 81.970 31.000,82.174 30.887,82.227 30.750 C 82.303 30.552,82.651 30.500,83.891 30.500 C 85.082 30.500,85.509 30.560,85.667 30.750 M179.918 30.669 C 179.976 30.762,180.280 30.946,180.595 31.077 C 180.909 31.209,181.167 31.416,181.167 31.538 C 181.167 31.660,181.317 31.888,181.500 32.045 C 181.846 32.341,182.019 36.462,181.706 36.935 C 181.622 37.062,180.472 37.114,178.042 37.102 L 174.500 37.083 174.500 34.633 C 174.500 32.855,174.557 32.147,174.708 32.050 C 174.823 31.977,174.999 31.767,175.100 31.583 C 175.200 31.400,175.450 31.165,175.655 31.061 C 175.860 30.957,176.112 30.788,176.214 30.686 C 176.451 30.449,179.773 30.434,179.918 30.669 M373.267 30.735 C 373.317 30.864,373.538 31.015,373.760 31.071 C 374.003 31.132,374.203 31.335,374.266 31.586 C 374.323 31.814,374.470 32.000,374.592 32.000 C 374.812 32.000,375.000 35.214,374.863 36.643 L 374.810 37.203 372.446 37.072 C 369.532 36.911,369.258 36.912,368.375 37.077 L 367.667 37.209 367.667 34.683 C 367.667 32.591,367.710 32.140,367.917 32.060 C 368.054 32.008,368.167 31.860,368.167 31.732 C 368.167 31.604,368.279 31.500,368.417 31.500 C 368.554 31.500,368.667 31.387,368.667 31.250 C 368.667 31.113,368.770 31.000,368.896 31.000 C 369.023 31.000,369.219 30.887,369.333 30.750 C 369.626 30.397,373.133 30.384,373.267 30.735 M117.139 31.291 C 117.824 31.721,118.295 32.222,118.359 32.586 C 118.391 32.768,118.548 33.015,118.708 33.134 C 119.124 33.445,119.165 61.311,118.750 61.726 C 118.612 61.864,118.500 62.045,118.500 62.129 C 118.500 62.370,117.342 63.500,117.096 63.500 C 116.974 63.500,116.781 63.612,116.667 63.750 C 116.514 63.934,116.110 64.000,115.146 64.000 C 114.090 64.000,113.833 63.951,113.833 63.750 C 113.833 63.596,113.677 63.500,113.425 63.500 C 113.012 63.500,112.167 62.855,112.167 62.540 C 112.167 62.446,112.046 62.323,111.899 62.266 C 111.623 62.161,111.633 61.600,111.927 60.667 C 112.103 60.107,112.176 35.525,112.002 35.418 C 111.927 35.371,111.904 35.043,111.952 34.688 C 112.003 34.303,111.963 33.997,111.852 33.928 C 111.281 33.576,112.373 31.500,113.129 31.500 C 113.222 31.500,113.339 31.392,113.390 31.261 C 113.565 30.803,116.401 30.826,117.139 31.291 M359.408 32.379 C 359.363 32.496,359.347 34.165,359.372 36.088 L 359.417 39.583 359.500 35.875 C 359.582 32.243,359.574 31.947,359.408 32.379 M2.545 37.167 C 2.545 37.579,2.578 37.748,2.618 37.542 C 2.657 37.335,2.657 36.998,2.618 36.792 C 2.578 36.585,2.545 36.754,2.545 37.167 M206.058 42.167 C 206.058 42.946,206.087 43.265,206.122 42.875 C 206.157 42.485,206.157 41.848,206.122 41.458 C 206.087 41.069,206.058 41.387,206.058 42.167 M309.224 42.750 C 309.224 43.483,309.254 43.763,309.289 43.371 C 309.324 42.979,309.324 42.379,309.288 42.037 C 309.252 41.696,309.223 42.017,309.224 42.750 M3.239 48.750 C 3.239 50.950,3.262 51.827,3.291 50.699 C 3.320 49.571,3.320 47.771,3.291 46.699 C 3.262 45.627,3.238 46.550,3.239 48.750 M279.833 50.583 C 280.084 50.885,282.988 50.945,283.279 50.655 C 283.377 50.556,283.711 50.500,284.020 50.530 L 284.583 50.583 284.627 56.514 C 284.669 62.250,284.660 62.457,284.335 62.831 C 284.151 63.044,284.000 63.281,284.000 63.359 C 284.000 63.436,283.858 63.500,283.684 63.500 C 283.511 63.500,283.326 63.612,283.273 63.750 C 283.199 63.943,282.877 64.000,281.859 64.000 C 280.891 64.000,280.486 63.934,280.333 63.750 C 280.219 63.612,280.050 63.500,279.957 63.500 C 279.650 63.500,279.000 62.657,279.000 62.259 C 279.000 62.045,278.887 61.826,278.750 61.773 C 278.535 61.691,278.500 60.939,278.500 56.417 C 278.500 51.894,278.535 51.143,278.750 51.060 C 278.887 51.008,279.000 50.866,279.000 50.746 C 279.000 50.552,279.219 50.385,279.521 50.346 C 279.579 50.339,279.719 50.446,279.833 50.583 M30.211 50.953 C 30.464 50.991,30.839 50.990,31.044 50.951 C 31.249 50.911,31.042 50.880,30.583 50.881 C 30.125 50.882,29.957 50.915,30.211 50.953 M309.228 59.417 C 309.228 60.333,309.256 60.687,309.290 60.203 C 309.324 59.718,309.323 58.968,309.289 58.536 C 309.255 58.104,309.227 58.500,309.228 59.417 M234.564 61.750 C 234.564 62.850,234.591 63.278,234.624 62.702 C 234.656 62.125,234.656 61.225,234.623 60.702 C 234.590 60.178,234.563 60.650,234.564 61.750 M206.058 67.500 C 206.058 68.279,206.087 68.598,206.122 68.208 C 206.157 67.819,206.157 67.181,206.122 66.792 C 206.087 66.402,206.058 66.721,206.058 67.500 M318.417 72.667 L 317.583 72.781 318.333 72.805 C 318.746 72.818,319.196 72.756,319.333 72.667 C 319.471 72.578,319.508 72.516,319.417 72.529 C 319.325 72.542,318.875 72.604,318.417 72.667 " stroke="none" fill="#fcfcfc" fill-rule="evenodd"></path></g></svg>