<svg width="1508" height="470" viewBox="0 0 1508 470" fill="none" xmlns="http://www.w3.org/2000/svg">
<path d="M441.335 442.993H424.485V180.313C424.485 171.82 417.648 164.977 409.162 164.977H237.365V442.993H229.062V17.9641C229.062 8.06553 221.003 0 211.113 0H59.8907C50.0005 0 41.9418 8.06553 41.9418 17.9641V442.993H0V470H466V467.739C466.061 454.113 454.95 442.993 441.335 442.993V442.993ZM284.74 200.966H377.049C380.651 200.966 383.642 203.899 383.642 207.565C383.642 211.17 380.712 214.164 377.049 214.164H284.74C281.138 214.164 278.147 211.231 278.147 207.565C278.208 203.899 281.138 200.966 284.74 200.966ZM284.74 242.516H377.049C380.651 242.516 383.642 245.449 383.642 249.115C383.642 252.781 380.712 255.714 377.049 255.714H284.74C281.138 255.714 278.147 252.781 278.147 249.115C278.147 245.449 281.138 242.516 284.74 242.516ZM284.74 284.065H377.049C380.651 284.065 383.642 286.998 383.642 290.664C383.642 294.33 380.712 297.263 377.049 297.263H284.74C281.138 297.263 278.147 294.33 278.147 290.664C278.147 286.998 281.138 284.065 284.74 284.065ZM284.74 325.615H377.049C380.651 325.615 383.642 328.548 383.642 332.214C383.642 335.88 380.712 338.813 377.049 338.813H284.74C281.138 338.813 278.147 335.88 278.147 332.214C278.147 328.548 281.138 325.615 284.74 325.615ZM89.3171 76.2559H181.626C185.228 76.2559 188.219 79.1888 188.219 82.8549C188.219 86.5211 185.289 89.454 181.626 89.454H89.3171C85.7151 89.454 82.7237 86.5211 82.7237 82.8549C82.7237 79.1888 85.7151 76.2559 89.3171 76.2559ZM89.3171 117.806H181.626C185.228 117.806 188.219 120.738 188.219 124.405C188.219 128.071 185.289 131.004 181.626 131.004H89.3171C85.7151 131.004 82.7237 128.071 82.7237 124.405C82.7237 120.738 85.7151 117.806 89.3171 117.806ZM89.3171 159.355H181.626C185.228 159.355 188.219 162.288 188.219 165.954C188.219 169.62 185.289 172.553 181.626 172.553H89.3171C85.7151 172.553 82.7237 169.62 82.7237 165.954C82.7237 162.288 85.7151 159.355 89.3171 159.355ZM89.3171 200.966H181.626C185.228 200.966 188.219 203.899 188.219 207.565C188.219 211.17 185.289 214.164 181.626 214.164H89.3171C85.7151 214.164 82.7237 211.231 82.7237 207.565C82.7847 203.899 85.7151 200.966 89.3171 200.966ZM89.3171 242.516H181.626C185.228 242.516 188.219 245.449 188.219 249.115C188.219 252.781 185.289 255.714 181.626 255.714H89.3171C85.7151 255.714 82.7237 252.781 82.7237 249.115C82.7237 245.449 85.7151 242.516 89.3171 242.516Z" fill="white"/>
<path d="M546.087 362H490L553.191 170H624.235L687.426 362H631.339L589.461 222.875H587.965L546.087 362ZM535.617 286.25H641.061V325.25H535.617V286.25Z" fill="white"/>
<path d="M546.087 362H490L553.191 170H624.235L687.426 362H631.339L589.461 222.875H587.965L546.087 362ZM535.617 286.25H641.061V325.25H535.617V286.25Z" fill="white"/>
<path d="M546.087 362H490L553.191 170H624.235L687.426 362H631.339L589.461 222.875H587.965L546.087 362ZM535.617 286.25H641.061V325.25H535.617V286.25Z" fill="white"/>
<path d="M546.087 362H490L553.191 170H624.235L687.426 362H631.339L589.461 222.875H587.965L546.087 362ZM535.617 286.25H641.061V325.25H535.617V286.25Z" fill="white"/>
<path d="M758.212 170V362H706.612V170H758.212Z" fill="white"/>
<path d="M758.212 170V362H706.612V170H758.212Z" fill="white"/>
<path d="M758.212 170V362H706.612V170H758.212Z" fill="white"/>
<path d="M758.212 170V362H706.612V170H758.212Z" fill="white"/>
<path d="M853.677 419C839.281 419 826.942 416.938 816.659 412.813C806.439 408.75 798.493 403.125 792.822 395.938C787.214 388.813 784.067 380.625 783.381 371.375H833.111C833.61 374.438 834.856 376.906 836.851 378.781C838.845 380.656 841.4 382 844.516 382.813C847.694 383.688 851.246 384.125 855.172 384.125C861.84 384.125 867.356 382.5 871.718 379.25C876.143 376 878.355 370.125 878.355 361.625V337.25H876.859C874.99 342.125 872.123 346.281 868.259 349.719C864.395 353.094 859.753 355.688 854.331 357.5C848.909 359.25 842.958 360.125 836.477 360.125C826.256 360.125 816.846 357.75 808.246 353C799.709 348.25 792.854 340.719 787.681 330.406C782.571 320.094 780.016 306.625 780.016 290C780.016 272.625 782.696 258.5 788.055 247.625C793.477 236.75 800.456 228.781 808.994 223.719C817.594 218.656 826.63 216.125 836.103 216.125C843.207 216.125 849.439 217.375 854.798 219.875C860.158 222.312 864.645 225.594 868.259 229.719C871.874 233.781 874.616 238.25 876.485 243.125H877.607V218H929.207V361.625C929.207 373.813 926.06 384.156 919.766 392.656C913.534 401.219 904.747 407.75 893.405 412.25C882.063 416.75 868.82 419 853.677 419ZM855.546 323.375C860.282 323.375 864.333 322.062 867.698 319.437C871.126 316.75 873.743 312.937 875.551 308C877.42 303 878.355 297 878.355 290C878.355 282.875 877.42 276.781 875.551 271.719C873.743 266.594 871.126 262.688 867.698 260C864.333 257.25 860.282 255.875 855.546 255.875C850.81 255.875 846.759 257.25 843.394 260C840.091 262.688 837.536 266.594 835.729 271.719C833.984 276.781 833.111 282.875 833.111 290C833.111 297.125 833.984 303.187 835.729 308.188C837.536 313.125 840.091 316.906 843.394 319.531C846.759 322.094 850.81 323.375 855.546 323.375Z" fill="white"/>
<path d="M853.677 419C839.281 419 826.942 416.938 816.659 412.813C806.439 408.75 798.493 403.125 792.822 395.938C787.214 388.813 784.067 380.625 783.381 371.375H833.111C833.61 374.438 834.856 376.906 836.851 378.781C838.845 380.656 841.4 382 844.516 382.813C847.694 383.688 851.246 384.125 855.172 384.125C861.84 384.125 867.356 382.5 871.718 379.25C876.143 376 878.355 370.125 878.355 361.625V337.25H876.859C874.99 342.125 872.123 346.281 868.259 349.719C864.395 353.094 859.753 355.688 854.331 357.5C848.909 359.25 842.958 360.125 836.477 360.125C826.256 360.125 816.846 357.75 808.246 353C799.709 348.25 792.854 340.719 787.681 330.406C782.571 320.094 780.016 306.625 780.016 290C780.016 272.625 782.696 258.5 788.055 247.625C793.477 236.75 800.456 228.781 808.994 223.719C817.594 218.656 826.63 216.125 836.103 216.125C843.207 216.125 849.439 217.375 854.798 219.875C860.158 222.312 864.645 225.594 868.259 229.719C871.874 233.781 874.616 238.25 876.485 243.125H877.607V218H929.207V361.625C929.207 373.813 926.06 384.156 919.766 392.656C913.534 401.219 904.747 407.75 893.405 412.25C882.063 416.75 868.82 419 853.677 419ZM855.546 323.375C860.282 323.375 864.333 322.062 867.698 319.437C871.126 316.75 873.743 312.937 875.551 308C877.42 303 878.355 297 878.355 290C878.355 282.875 877.42 276.781 875.551 271.719C873.743 266.594 871.126 262.688 867.698 260C864.333 257.25 860.282 255.875 855.546 255.875C850.81 255.875 846.759 257.25 843.394 260C840.091 262.688 837.536 266.594 835.729 271.719C833.984 276.781 833.111 282.875 833.111 290C833.111 297.125 833.984 303.187 835.729 308.188C837.536 313.125 840.091 316.906 843.394 319.531C846.759 322.094 850.81 323.375 855.546 323.375Z" fill="white"/>
<path d="M853.677 419C839.281 419 826.942 416.938 816.659 412.813C806.439 408.75 798.493 403.125 792.822 395.938C787.214 388.813 784.067 380.625 783.381 371.375H833.111C833.61 374.438 834.856 376.906 836.851 378.781C838.845 380.656 841.4 382 844.516 382.813C847.694 383.688 851.246 384.125 855.172 384.125C861.84 384.125 867.356 382.5 871.718 379.25C876.143 376 878.355 370.125 878.355 361.625V337.25H876.859C874.99 342.125 872.123 346.281 868.259 349.719C864.395 353.094 859.753 355.688 854.331 357.5C848.909 359.25 842.958 360.125 836.477 360.125C826.256 360.125 816.846 357.75 808.246 353C799.709 348.25 792.854 340.719 787.681 330.406C782.571 320.094 780.016 306.625 780.016 290C780.016 272.625 782.696 258.5 788.055 247.625C793.477 236.75 800.456 228.781 808.994 223.719C817.594 218.656 826.63 216.125 836.103 216.125C843.207 216.125 849.439 217.375 854.798 219.875C860.158 222.312 864.645 225.594 868.259 229.719C871.874 233.781 874.616 238.25 876.485 243.125H877.607V218H929.207V361.625C929.207 373.813 926.06 384.156 919.766 392.656C913.534 401.219 904.747 407.75 893.405 412.25C882.063 416.75 868.82 419 853.677 419ZM855.546 323.375C860.282 323.375 864.333 322.062 867.698 319.437C871.126 316.75 873.743 312.937 875.551 308C877.42 303 878.355 297 878.355 290C878.355 282.875 877.42 276.781 875.551 271.719C873.743 266.594 871.126 262.688 867.698 260C864.333 257.25 860.282 255.875 855.546 255.875C850.81 255.875 846.759 257.25 843.394 260C840.091 262.688 837.536 266.594 835.729 271.719C833.984 276.781 833.111 282.875 833.111 290C833.111 297.125 833.984 303.187 835.729 308.188C837.536 313.125 840.091 316.906 843.394 319.531C846.759 322.094 850.81 323.375 855.546 323.375Z" fill="white"/>
<path d="M853.677 419C839.281 419 826.942 416.938 816.659 412.813C806.439 408.75 798.493 403.125 792.822 395.938C787.214 388.813 784.067 380.625 783.381 371.375H833.111C833.61 374.438 834.856 376.906 836.851 378.781C838.845 380.656 841.4 382 844.516 382.813C847.694 383.688 851.246 384.125 855.172 384.125C861.84 384.125 867.356 382.5 871.718 379.25C876.143 376 878.355 370.125 878.355 361.625V337.25H876.859C874.99 342.125 872.123 346.281 868.259 349.719C864.395 353.094 859.753 355.688 854.331 357.5C848.909 359.25 842.958 360.125 836.477 360.125C826.256 360.125 816.846 357.75 808.246 353C799.709 348.25 792.854 340.719 787.681 330.406C782.571 320.094 780.016 306.625 780.016 290C780.016 272.625 782.696 258.5 788.055 247.625C793.477 236.75 800.456 228.781 808.994 223.719C817.594 218.656 826.63 216.125 836.103 216.125C843.207 216.125 849.439 217.375 854.798 219.875C860.158 222.312 864.645 225.594 868.259 229.719C871.874 233.781 874.616 238.25 876.485 243.125H877.607V218H929.207V361.625C929.207 373.813 926.06 384.156 919.766 392.656C913.534 401.219 904.747 407.75 893.405 412.25C882.063 416.75 868.82 419 853.677 419ZM855.546 323.375C860.282 323.375 864.333 322.062 867.698 319.437C871.126 316.75 873.743 312.937 875.551 308C877.42 303 878.355 297 878.355 290C878.355 282.875 877.42 276.781 875.551 271.719C873.743 266.594 871.126 262.688 867.698 260C864.333 257.25 860.282 255.875 855.546 255.875C850.81 255.875 846.759 257.25 843.394 260C840.091 262.688 837.536 266.594 835.729 271.719C833.984 276.781 833.111 282.875 833.111 290C833.111 297.125 833.984 303.187 835.729 308.188C837.536 313.125 840.091 316.906 843.394 319.531C846.759 322.094 850.81 323.375 855.546 323.375Z" fill="white"/>
<path d="M1007.05 170V362H955.451V170H1007.05Z" fill="white"/>
<path d="M1007.05 170V362H955.451V170H1007.05Z" fill="white"/>
<path d="M1007.05 170V362H955.451V170H1007.05Z" fill="white"/>
<path d="M1007.05 170V362H955.451V170H1007.05Z" fill="white"/>
<path d="M1102.14 364.625C1086.81 364.625 1073.6 361.688 1062.51 355.813C1051.48 349.875 1042.97 341.375 1036.99 330.312C1031.07 319.187 1028.11 305.875 1028.11 290.375C1028.11 275.5 1031.1 262.5 1037.08 251.375C1043.06 240.25 1051.51 231.594 1062.41 225.406C1073.32 219.219 1086.19 216.125 1101.02 216.125C1111.86 216.125 1121.68 217.813 1130.47 221.188C1139.25 224.563 1146.76 229.469 1152.99 235.906C1159.23 242.281 1164.02 250.031 1167.39 259.156C1170.75 268.281 1172.44 278.563 1172.44 290V302H1044.18V273.5H1124.95C1124.89 269.375 1123.83 265.75 1121.77 262.625C1119.78 259.438 1117.07 256.969 1113.64 255.219C1110.27 253.406 1106.44 252.5 1102.14 252.5C1097.97 252.5 1094.13 253.406 1090.64 255.219C1087.15 256.969 1084.35 259.406 1082.23 262.531C1080.17 265.656 1079.08 269.313 1078.96 273.5V304.25C1078.96 308.875 1079.92 313 1081.86 316.625C1083.79 320.25 1086.56 323.094 1090.18 325.156C1093.79 327.219 1098.15 328.25 1103.26 328.25C1106.82 328.25 1110.06 327.75 1112.98 326.75C1115.98 325.75 1118.53 324.313 1120.65 322.438C1122.77 320.5 1124.33 318.188 1125.32 315.5H1172.44C1170.82 325.5 1166.98 334.188 1160.94 341.563C1154.89 348.875 1146.89 354.563 1136.92 358.625C1127.01 362.625 1115.42 364.625 1102.14 364.625Z" fill="white"/>
<path d="M1102.14 364.625C1086.81 364.625 1073.6 361.688 1062.51 355.813C1051.48 349.875 1042.97 341.375 1036.99 330.312C1031.07 319.187 1028.11 305.875 1028.11 290.375C1028.11 275.5 1031.1 262.5 1037.08 251.375C1043.06 240.25 1051.51 231.594 1062.41 225.406C1073.32 219.219 1086.19 216.125 1101.02 216.125C1111.86 216.125 1121.68 217.813 1130.47 221.188C1139.25 224.563 1146.76 229.469 1152.99 235.906C1159.23 242.281 1164.02 250.031 1167.39 259.156C1170.75 268.281 1172.44 278.563 1172.44 290V302H1044.18V273.5H1124.95C1124.89 269.375 1123.83 265.75 1121.77 262.625C1119.78 259.438 1117.07 256.969 1113.64 255.219C1110.27 253.406 1106.44 252.5 1102.14 252.5C1097.97 252.5 1094.13 253.406 1090.64 255.219C1087.15 256.969 1084.35 259.406 1082.23 262.531C1080.17 265.656 1079.08 269.313 1078.96 273.5V304.25C1078.96 308.875 1079.92 313 1081.86 316.625C1083.79 320.25 1086.56 323.094 1090.18 325.156C1093.79 327.219 1098.15 328.25 1103.26 328.25C1106.82 328.25 1110.06 327.75 1112.98 326.75C1115.98 325.75 1118.53 324.313 1120.65 322.438C1122.77 320.5 1124.33 318.188 1125.32 315.5H1172.44C1170.82 325.5 1166.98 334.188 1160.94 341.563C1154.89 348.875 1146.89 354.563 1136.92 358.625C1127.01 362.625 1115.42 364.625 1102.14 364.625Z" fill="white"/>
<path d="M1102.14 364.625C1086.81 364.625 1073.6 361.688 1062.51 355.813C1051.48 349.875 1042.97 341.375 1036.99 330.312C1031.07 319.187 1028.11 305.875 1028.11 290.375C1028.11 275.5 1031.1 262.5 1037.08 251.375C1043.06 240.25 1051.51 231.594 1062.41 225.406C1073.32 219.219 1086.19 216.125 1101.02 216.125C1111.86 216.125 1121.68 217.813 1130.47 221.188C1139.25 224.563 1146.76 229.469 1152.99 235.906C1159.23 242.281 1164.02 250.031 1167.39 259.156C1170.75 268.281 1172.44 278.563 1172.44 290V302H1044.18V273.5H1124.95C1124.89 269.375 1123.83 265.75 1121.77 262.625C1119.78 259.438 1117.07 256.969 1113.64 255.219C1110.27 253.406 1106.44 252.5 1102.14 252.5C1097.97 252.5 1094.13 253.406 1090.64 255.219C1087.15 256.969 1084.35 259.406 1082.23 262.531C1080.17 265.656 1079.08 269.313 1078.96 273.5V304.25C1078.96 308.875 1079.92 313 1081.86 316.625C1083.79 320.25 1086.56 323.094 1090.18 325.156C1093.79 327.219 1098.15 328.25 1103.26 328.25C1106.82 328.25 1110.06 327.75 1112.98 326.75C1115.98 325.75 1118.53 324.313 1120.65 322.438C1122.77 320.5 1124.33 318.188 1125.32 315.5H1172.44C1170.82 325.5 1166.98 334.188 1160.94 341.563C1154.89 348.875 1146.89 354.563 1136.92 358.625C1127.01 362.625 1115.42 364.625 1102.14 364.625Z" fill="white"/>
<path d="M1102.14 364.625C1086.81 364.625 1073.6 361.688 1062.51 355.813C1051.48 349.875 1042.97 341.375 1036.99 330.312C1031.07 319.187 1028.11 305.875 1028.11 290.375C1028.11 275.5 1031.1 262.5 1037.08 251.375C1043.06 240.25 1051.51 231.594 1062.41 225.406C1073.32 219.219 1086.19 216.125 1101.02 216.125C1111.86 216.125 1121.68 217.813 1130.47 221.188C1139.25 224.563 1146.76 229.469 1152.99 235.906C1159.23 242.281 1164.02 250.031 1167.39 259.156C1170.75 268.281 1172.44 278.563 1172.44 290V302H1044.18V273.5H1124.95C1124.89 269.375 1123.83 265.75 1121.77 262.625C1119.78 259.438 1117.07 256.969 1113.64 255.219C1110.27 253.406 1106.44 252.5 1102.14 252.5C1097.97 252.5 1094.13 253.406 1090.64 255.219C1087.15 256.969 1084.35 259.406 1082.23 262.531C1080.17 265.656 1079.08 269.313 1078.96 273.5V304.25C1078.96 308.875 1079.92 313 1081.86 316.625C1083.79 320.25 1086.56 323.094 1090.18 325.156C1093.79 327.219 1098.15 328.25 1103.26 328.25C1106.82 328.25 1110.06 327.75 1112.98 326.75C1115.98 325.75 1118.53 324.313 1120.65 322.438C1122.77 320.5 1124.33 318.188 1125.32 315.5H1172.44C1170.82 325.5 1166.98 334.188 1160.94 341.563C1154.89 348.875 1146.89 354.563 1136.92 358.625C1127.01 362.625 1115.42 364.625 1102.14 364.625Z" fill="white"/>
<path d="M1245.09 281V362H1193.49V218H1242.48V245.375H1243.97C1247.09 236.25 1252.57 229.094 1260.42 223.906C1268.34 218.719 1277.56 216.125 1288.09 216.125C1298.25 216.125 1307.07 218.469 1314.55 223.156C1322.09 227.781 1327.91 234.156 1332.03 242.281C1336.2 250.406 1338.26 259.688 1338.2 270.125V362H1286.6V281C1286.66 273.875 1284.85 268.281 1281.18 264.219C1277.56 260.156 1272.51 258.125 1266.03 258.125C1261.79 258.125 1258.09 259.063 1254.91 260.938C1251.79 262.75 1249.39 265.375 1247.71 268.813C1246.03 272.188 1245.16 276.25 1245.09 281Z" fill="white"/>
<path d="M1245.09 281V362H1193.49V218H1242.48V245.375H1243.97C1247.09 236.25 1252.57 229.094 1260.42 223.906C1268.34 218.719 1277.56 216.125 1288.09 216.125C1298.25 216.125 1307.07 218.469 1314.55 223.156C1322.09 227.781 1327.91 234.156 1332.03 242.281C1336.2 250.406 1338.26 259.688 1338.2 270.125V362H1286.6V281C1286.66 273.875 1284.85 268.281 1281.18 264.219C1277.56 260.156 1272.51 258.125 1266.03 258.125C1261.79 258.125 1258.09 259.063 1254.91 260.938C1251.79 262.75 1249.39 265.375 1247.71 268.813C1246.03 272.188 1245.16 276.25 1245.09 281Z" fill="white"/>
<path d="M1245.09 281V362H1193.49V218H1242.48V245.375H1243.97C1247.09 236.25 1252.57 229.094 1260.42 223.906C1268.34 218.719 1277.56 216.125 1288.09 216.125C1298.25 216.125 1307.07 218.469 1314.55 223.156C1322.09 227.781 1327.91 234.156 1332.03 242.281C1336.2 250.406 1338.26 259.688 1338.2 270.125V362H1286.6V281C1286.66 273.875 1284.85 268.281 1281.18 264.219C1277.56 260.156 1272.51 258.125 1266.03 258.125C1261.79 258.125 1258.09 259.063 1254.91 260.938C1251.79 262.75 1249.39 265.375 1247.71 268.813C1246.03 272.188 1245.16 276.25 1245.09 281Z" fill="white"/>
<path d="M1245.09 281V362H1193.49V218H1242.48V245.375H1243.97C1247.09 236.25 1252.57 229.094 1260.42 223.906C1268.34 218.719 1277.56 216.125 1288.09 216.125C1298.25 216.125 1307.07 218.469 1314.55 223.156C1322.09 227.781 1327.91 234.156 1332.03 242.281C1336.2 250.406 1338.26 259.688 1338.2 270.125V362H1286.6V281C1286.66 273.875 1284.85 268.281 1281.18 264.219C1277.56 260.156 1272.51 258.125 1266.03 258.125C1261.79 258.125 1258.09 259.063 1254.91 260.938C1251.79 262.75 1249.39 265.375 1247.71 268.813C1246.03 272.188 1245.16 276.25 1245.09 281Z" fill="white"/>
<path d="M1415.64 363.875C1405.42 363.875 1396.01 361.188 1387.41 355.813C1378.88 350.438 1372.02 342.281 1366.85 331.344C1361.74 320.406 1359.18 306.625 1359.18 290C1359.18 272.625 1361.86 258.5 1367.22 247.625C1372.64 236.75 1379.62 228.781 1388.16 223.719C1396.76 218.656 1405.8 216.125 1415.27 216.125C1422.37 216.125 1428.61 217.375 1433.97 219.875C1439.32 222.312 1443.81 225.594 1447.43 229.719C1451.04 233.781 1453.78 238.25 1455.65 243.125H1456.4V170H1508V362H1456.77V338.375H1455.65C1453.66 343.25 1450.79 347.625 1447.05 351.5C1443.38 355.312 1438.89 358.344 1433.59 360.594C1428.36 362.781 1422.37 363.875 1415.64 363.875ZM1434.71 324.125C1439.45 324.125 1443.5 322.75 1446.87 320C1450.29 317.188 1452.91 313.25 1454.72 308.188C1456.59 303.063 1457.52 297 1457.52 290C1457.52 282.875 1456.59 276.781 1454.72 271.719C1452.91 266.594 1450.29 262.688 1446.87 260C1443.5 257.25 1439.45 255.875 1434.71 255.875C1429.98 255.875 1425.93 257.25 1422.56 260C1419.26 262.688 1416.7 266.594 1414.9 271.719C1413.15 276.781 1412.28 282.875 1412.28 290C1412.28 297.125 1413.15 303.25 1414.9 308.375C1416.7 313.438 1419.26 317.344 1422.56 320.094C1425.93 322.781 1429.98 324.125 1434.71 324.125Z" fill="white"/>
<path d="M1415.64 363.875C1405.42 363.875 1396.01 361.188 1387.41 355.813C1378.88 350.438 1372.02 342.281 1366.85 331.344C1361.74 320.406 1359.18 306.625 1359.18 290C1359.18 272.625 1361.86 258.5 1367.22 247.625C1372.64 236.75 1379.62 228.781 1388.16 223.719C1396.76 218.656 1405.8 216.125 1415.27 216.125C1422.37 216.125 1428.61 217.375 1433.97 219.875C1439.32 222.312 1443.81 225.594 1447.43 229.719C1451.04 233.781 1453.78 238.25 1455.65 243.125H1456.4V170H1508V362H1456.77V338.375H1455.65C1453.66 343.25 1450.79 347.625 1447.05 351.5C1443.38 355.312 1438.89 358.344 1433.59 360.594C1428.36 362.781 1422.37 363.875 1415.64 363.875ZM1434.71 324.125C1439.45 324.125 1443.5 322.75 1446.87 320C1450.29 317.188 1452.91 313.25 1454.72 308.188C1456.59 303.063 1457.52 297 1457.52 290C1457.52 282.875 1456.59 276.781 1454.72 271.719C1452.91 266.594 1450.29 262.688 1446.87 260C1443.5 257.25 1439.45 255.875 1434.71 255.875C1429.98 255.875 1425.93 257.25 1422.56 260C1419.26 262.688 1416.7 266.594 1414.9 271.719C1413.15 276.781 1412.28 282.875 1412.28 290C1412.28 297.125 1413.15 303.25 1414.9 308.375C1416.7 313.438 1419.26 317.344 1422.56 320.094C1425.93 322.781 1429.98 324.125 1434.71 324.125Z" fill="white"/>
<path d="M1415.64 363.875C1405.42 363.875 1396.01 361.188 1387.41 355.813C1378.88 350.438 1372.02 342.281 1366.85 331.344C1361.74 320.406 1359.18 306.625 1359.18 290C1359.18 272.625 1361.86 258.5 1367.22 247.625C1372.64 236.75 1379.62 228.781 1388.16 223.719C1396.76 218.656 1405.8 216.125 1415.27 216.125C1422.37 216.125 1428.61 217.375 1433.97 219.875C1439.32 222.312 1443.81 225.594 1447.43 229.719C1451.04 233.781 1453.78 238.25 1455.65 243.125H1456.4V170H1508V362H1456.77V338.375H1455.65C1453.66 343.25 1450.79 347.625 1447.05 351.5C1443.38 355.312 1438.89 358.344 1433.59 360.594C1428.36 362.781 1422.37 363.875 1415.64 363.875ZM1434.71 324.125C1439.45 324.125 1443.5 322.75 1446.87 320C1450.29 317.188 1452.91 313.25 1454.72 308.188C1456.59 303.063 1457.52 297 1457.52 290C1457.52 282.875 1456.59 276.781 1454.72 271.719C1452.91 266.594 1450.29 262.688 1446.87 260C1443.5 257.25 1439.45 255.875 1434.71 255.875C1429.98 255.875 1425.93 257.25 1422.56 260C1419.26 262.688 1416.7 266.594 1414.9 271.719C1413.15 276.781 1412.28 282.875 1412.28 290C1412.28 297.125 1413.15 303.25 1414.9 308.375C1416.7 313.438 1419.26 317.344 1422.56 320.094C1425.93 322.781 1429.98 324.125 1434.71 324.125Z" fill="white"/>
<path d="M1415.64 363.875C1405.42 363.875 1396.01 361.188 1387.41 355.813C1378.88 350.438 1372.02 342.281 1366.85 331.344C1361.74 320.406 1359.18 306.625 1359.18 290C1359.18 272.625 1361.86 258.5 1367.22 247.625C1372.64 236.75 1379.62 228.781 1388.16 223.719C1396.76 218.656 1405.8 216.125 1415.27 216.125C1422.37 216.125 1428.61 217.375 1433.97 219.875C1439.32 222.312 1443.81 225.594 1447.43 229.719C1451.04 233.781 1453.78 238.25 1455.65 243.125H1456.4V170H1508V362H1456.77V338.375H1455.65C1453.66 343.25 1450.79 347.625 1447.05 351.5C1443.38 355.312 1438.89 358.344 1433.59 360.594C1428.36 362.781 1422.37 363.875 1415.64 363.875ZM1434.71 324.125C1439.45 324.125 1443.5 322.75 1446.87 320C1450.29 317.188 1452.91 313.25 1454.72 308.188C1456.59 303.063 1457.52 297 1457.52 290C1457.52 282.875 1456.59 276.781 1454.72 271.719C1452.91 266.594 1450.29 262.688 1446.87 260C1443.5 257.25 1439.45 255.875 1434.71 255.875C1429.98 255.875 1425.93 257.25 1422.56 260C1419.26 262.688 1416.7 266.594 1414.9 271.719C1413.15 276.781 1412.28 282.875 1412.28 290C1412.28 297.125 1413.15 303.25 1414.9 308.375C1416.7 313.438 1419.26 317.344 1422.56 320.094C1425.93 322.781 1429.98 324.125 1434.71 324.125Z" fill="white"/>
</svg>
