<svg width="100" height="100" viewBox="0 0 100 100" fill="none" xmlns="http://www.w3.org/2000/svg"><path d="M50 0c27.6168 0 50 22.3877 50 50 0 27.6168-22.3832 50-50 50-27.6123 0-50-22.3855-50-50C0 22.3877 22.3877 0 50 0Z" fill="#F5AC37"/><path d="M51.8262 53.5307h18.9992c.405 0 .5963 0 .6255-.531a36.3075 36.3075 0 0 0 0-5.8118c0-.3758-.1868-.531-.594-.531H33.0453c-.468 0-.594.1552-.594.594v5.562c0 .7178 0 .7178.7492.7178h18.6257Zm17.5029-13.3741a.6083.6083 0 0 0 0-.4365c-.3172-.6908-.693-1.3501-1.1295-1.9688a15.9405 15.9405 0 0 0-2.313-2.907c-.4163-.5288-.8978-1.0036-1.4378-1.4063a22.4621 22.4621 0 0 0-9.3758-4.7498c-1.7438-.3915-3.5258-.5783-5.3123-.5625H32.98c-.468 0-.531.1867-.531.594v11.0926c0 .468 0 .594.594.594h36.0611s.3128-.063.3758-.2497h-.153.0022Zm0 19.8744a7.2926 7.2926 0 0 0-1.5975 0H33.0768c-.468 0-.6255 0-.6255.6255v10.8451c0 .4995 0 .6255.6255.6255h15.9999c.765.0585 1.53.0045 2.2793-.1552a23.8177 23.8177 0 0 0 6.7838-1.5008 12.411 12.411 0 0 0 2.2792-1.062h.2183c3.7508-1.9508 6.7973-5.0153 8.7188-8.7773 0 0 .2183-.4725-.027-.5963v-.0045ZM26.1715 77.7499V60.4698c0-.4073 0-.468-.4996-.468h-6.7815c-.3758 0-.531 0-.531-.4995v-5.9379h7.2495c.4051 0 .5626 0 .5626-.531v-5.8748c0-.3757 0-.468-.4996-.468h-6.7815c-.3758 0-.531 0-.531-.4995v-5.499c0-.3443 0-.4365.4995-.4365h6.7185c.4681 0 .5941 0 .5941-.594V22.8179c0-.4995 0-.6255.6255-.6255h23.4362a35.6999 35.6999 0 0 1 5.0625.5625c3.4448.6367 6.7546 1.8675 9.7809 3.6248a27.561 27.561 0 0 1 5.499 4.2503c1.2376 1.2847 2.3536 2.6752 3.3436 4.1558.9832 1.5007 1.8 3.105 2.4413 4.7813.0787.4365.4972.7312.9337.657h5.5936c.7177 0 .7177 0 .7492.6885v5.1255c0 .4995-.1867.6255-.6885.6255h-4.3133c-.4365 0-.5625 0-.531.5625a31.9233 31.9233 0 0 1 0 5.7173c0 .531 0 .594.5963.594h4.9343c.2182.2813 0 .5626 0 .8461.0315.3622.0315.729 0 1.0912v3.7823c0 .531-.1553.6885-.6255.6885H77.103c-.4118-.0787-.8123.1845-.9068.594a24.9893 24.9893 0 0 1-6.5633 9.5626c-1.062.9563-2.178 1.8563-3.3435 2.6865-1.2511.72-2.4683 1.4693-3.7508 2.0633-2.3603 1.062-4.8353 1.845-7.3756 2.3423-2.412.432-4.8578.6277-7.3126.594H26.1625v-.0315l.009-.0068Z" fill="#FEFEFD"/></svg>