<svg width="100" height="100" viewBox="0 0 100 100" fill="none" xmlns="http://www.w3.org/2000/svg"><path d="M50 100c27.7085 0 50-22.2915 50-50S77.7085 0 50 0 0 22.2915 0 50s22.2915 50 50 50Z" fill="#2775CA"/><path d="M63.7504 57.9164c0-7.2915-4.375-9.7915-13.1249-10.833-6.25-.8335-7.5-2.5-7.5-5.417s2.0835-4.7915 6.25-4.7915c3.7499 0 5.8334 1.25 6.8749 4.375.2085.625.8335 1.0415 1.4585 1.0415h3.333c.8335 0 1.4585-.625 1.4585-1.458v-.2085c-.8335-4.5835-4.5835-8.125-9.375-8.5415v-5c0-.8335-.6249-1.4585-1.6664-1.667h-3.125c-.8335 0-1.4585.625-1.667 1.667v4.7915c-6.25.8335-10.208 5-10.208 10.2085 0 6.875 4.1665 9.583 12.9165 10.625 5.8334 1.0415 7.7084 2.2915 7.7084 5.625s-2.917 5.625-6.8749 5.625c-5.417 0-7.292-2.292-7.917-5.417-.208-.833-.833-1.25-1.458-1.25h-3.542c-.833 0-1.458.625-1.458 1.4585v.2085c.833 5.208 4.1665 8.958 11.0415 10v5c0 .833.625 1.458 1.6665 1.6665h3.125c.8334 0 1.4585-.625 1.667-1.6665v-5c6.2499-1.042 10.4164-5.417 10.4164-11.042Z" fill="#fff"/><path d="M39.3752 79.7916c-16.25-5.833-24.5835-23.958-18.5415-40 3.125-8.75 10-15.4165 18.5415-18.5415.8335-.4165 1.25-1.0415 1.25-2.0835v-2.9165c0-.8335-.4165-1.4585-1.25-1.6665-.2085 0-.625 0-.8335.208-19.7915 6.25-30.625 27.292-24.375 47.0835 3.75 11.6665 12.7085 20.625 24.375 24.375.8335.4165 1.667 0 1.875-.8335.2085-.208.2085-.4165.2085-.833v-2.917c0-.625-.625-1.458-1.25-1.875Zm22.0835-65c-.8335-.4165-1.667 0-1.875.8335-.2085.2085-.2085.4165-.2085.8335v2.9165c0 .8335.625 1.6665 1.25 2.0835 16.25 5.833 24.5835 23.958 18.5415 40-3.125 8.75-10 15.4165-18.5415 18.5415-.8335.4165-1.25 1.0415-1.25 2.0835v2.9165c0 .8335.4165 1.4585 1.25 1.6665.2085 0 .625 0 .8335-.208 19.7915-6.25 30.625-27.292 24.375-47.0835-3.75-11.875-12.917-20.8335-24.375-24.5835Z" fill="#fff"/></svg>