<svg width="100" height="100" viewBox="0 0 100 100" fill="none" xmlns="http://www.w3.org/2000/svg"><g clip-path="url(#a)"><circle cx="50" cy="50" r="50" fill="#fff"/><path d="m81.5397 20.9867-2.7458 2.7457a38.8706 38.8706 0 0 1 0 52.462l2.7458 2.7458a42.7972 42.7972 0 0 0 0-58.0176v.0641ZM23.7961 21.2246a38.8711 38.8711 0 0 1 52.4621 0l2.7457-2.7457a42.7968 42.7968 0 0 0-58.0176 0l2.8098 2.7457ZM21.2248 76.2218a38.8703 38.8703 0 0 1 0-52.4346l-2.7458-2.7457a42.7968 42.7968 0 0 0 0 58.0176l2.7458-2.8373ZM76.2214 78.7571a38.8705 38.8705 0 0 1-52.462 0l-2.7457 2.7457a42.7969 42.7969 0 0 0 58.0175 0l-2.8098-2.7457Z" fill="#5A5564"/><path d="M67.3345 40.8383c-.5491-5.7294-5.4915-7.6514-11.7426-8.2372v-7.8894h-4.8325v7.743H46.897v-7.743h-4.7959v7.9443h-9.8023v5.1712s3.5695-.0641 3.5146 0a2.4985 2.4985 0 0 1 2.7457 2.1234v21.7462a1.6925 1.6925 0 0 1-.5857 1.1807 1.6755 1.6755 0 0 1-1.2448.421c.0641.0549-3.5145 0-3.5145 0l-.9153 5.7752h9.7108v8.0725h4.8325v-7.9535h3.8624v7.9169h4.8416v-7.9809c8.164-.4943 13.8569-2.5078 14.5708-10.1501.5766-6.1505-2.3156-8.8963-6.9376-10.0037 2.8098-1.382 4.5488-3.9447 4.1552-8.1366Zm-6.7728 17.1884c0 6.004-10.2874 5.3176-13.564 5.3176V52.6908c3.2766.0092 13.564-.9336 13.564 5.3359Zm-2.2424-15.0101c0 5.4915-8.585 4.8234-11.3124 4.8234v-9.6833c2.7274 0 11.3124-.8604 11.3124 4.8599Z" fill="#F09242"/><path d="M49.9909 100a49.9998 49.9998 0 0 1-35.3462-85.3553A50 50 0 0 1 100 49.9909 50.0054 50.0054 0 0 1 96.1958 69.13a50.002 50.002 0 0 1-10.8404 16.2254A50.002 50.002 0 0 1 69.13 96.1958 50.0054 50.0054 0 0 1 49.9909 100Zm0-96.101A46.0738 46.0738 0 0 0 7.4523 32.362 46.0737 46.0737 0 1 0 49.9909 3.899Z" fill="#282138"/></g><defs><clipPath id="a"><path fill="#fff" d="M0 0h100v100H0z"/></clipPath></defs></svg>